<svg width="18" height="18" fill="none" xmlns="http://www.w3.org/2000/svg"><path d="M16.5.25H1.496C.81.25.25.816.25 1.512v14.976c0 .696.559 1.262 1.246 1.262H16.5c.688 0 1.25-.566 1.25-1.262V1.512C17.75.816 17.187.25 16.5.25zm-10.96 15H2.944V6.898h2.598v8.352h-.004zM4.241 5.758a1.505 1.505 0 010-3.008c.828 0 1.504.676 1.504 1.504 0 .832-.672 1.504-1.504 1.504zm11.02 9.492h-2.594v-4.063c0-.968-.02-2.214-1.348-2.214-1.351 0-1.558 1.054-1.558 2.144v4.133H7.168V6.898h2.488V8.04h.035c.348-.656 1.196-1.348 2.457-1.348 2.625 0 3.114 1.73 3.114 3.98v4.579z" fill="#292830"/></svg>