<svg width="18" height="18" fill="none" xmlns="http://www.w3.org/2000/svg"><path d="M15.875.25H2.125C1.09.25.25 1.09.25 2.125v13.75c0 1.035.84 1.875 1.875 1.875h13.75c1.035 0 1.875-.84 1.875-1.875V2.125c0-1.035-.84-1.875-1.875-1.875zm-1.91 6.203c.008.11.008.223.008.332 0 3.387-2.579 7.29-7.29 7.29-1.453 0-2.8-.423-3.933-1.15.207.024.406.032.617.032 1.2 0 2.301-.406 3.18-1.094a2.565 2.565 0 01-2.395-1.777c.395.059.75.059 1.157-.047a2.562 2.562 0 01-2.051-2.516v-.03c.34.19.738.308 1.156.323a2.557 2.557 0 01-1.14-2.132c0-.477.124-.914.347-1.293a7.274 7.274 0 005.281 2.68c-.363-1.739.938-3.15 2.5-3.15.739 0 1.403.31 1.871.81a5.02 5.02 0 001.625-.618 2.555 2.555 0 01-1.125 1.41 5.098 5.098 0 001.477-.398 5.393 5.393 0 01-1.285 1.328z" fill="#292830"/></svg>