<svg width="539" height="435" fill="none" xmlns="http://www.w3.org/2000/svg"><path d="M413.902 77.253H291.603a8.559 8.559 0 00-8.548 8.557v75.111h139.39v-75.11a8.559 8.559 0 00-8.543-8.558z" fill="#F5EBDD"/><path d="M349.763 64.842a2.946 2.946 0 012.942 2.942v47.338a2.944 2.944 0 01-2.942 2.942h-47.84a2.946 2.946 0 01-2.937-2.942V67.779a2.945 2.945 0 012.937-2.937h47.84zm0-1.991h-47.84a4.94 4.94 0 00-3.492 1.443 4.938 4.938 0 00-1.447 3.49v47.338a4.94 4.94 0 004.939 4.933h47.84a4.934 4.934 0 004.934-4.933V67.779a4.937 4.937 0 00-4.934-4.928zm75.714 57.02a2.948 2.948 0 012.942 2.942v47.343a2.948 2.948 0 01-2.942 2.942H377.88a2.948 2.948 0 01-2.942-2.942v-47.343a2.948 2.948 0 012.942-2.942h47.597zm0-1.991H377.88a4.93 4.93 0 00-4.933 4.933v47.343a4.934 4.934 0 004.933 4.933h47.597a4.934 4.934 0 004.933-4.933v-47.343a4.934 4.934 0 00-4.933-4.933zm-121.886 13.764a2.947 2.947 0 012.942 2.942v30.367a2.948 2.948 0 01-2.942 2.943h-27.052a2.95 2.95 0 01-2.942-2.943v-30.367a2.946 2.946 0 012.942-2.942h27.052zm0-1.991h-27.052a4.934 4.934 0 00-4.933 4.933v30.367a4.93 4.93 0 004.933 4.934h27.052a4.934 4.934 0 004.933-4.934v-30.367a4.929 4.929 0 00-1.445-3.488 4.931 4.931 0 00-3.488-1.445z" fill="#FFB494"/><path d="M347.468 69.561h-43.27V99.85h43.27V69.56z" fill="#FFB494"/><path d="M373.753 89.633h-41.991c-6.194 0-11.216 5.022-11.216 11.216v36.222c0 6.194 5.022 11.215 11.216 11.215h41.991c6.195 0 11.216-5.021 11.216-11.215v-36.222c0-6.194-5.021-11.216-11.216-11.216z" fill="#3EC1F3"/><path d="M312.337 106.29a2.315 2.315 0 00-3.27 0l-.498.498-.498-.498a2.316 2.316 0 00-3.271 3.271l.498.498 3.271 3.271 3.265-3.271.498-.498a2.314 2.314 0 00.005-3.271z" fill="#FFB494"/><path d="M356.474 106.698h-15.612a4.934 4.934 0 00-4.933 4.934v14.651a4.934 4.934 0 004.933 4.933h15.612a4.933 4.933 0 004.933-4.933v-14.651a4.933 4.933 0 00-4.933-4.934z" fill="#3546AB"/><path d="M357.694 120.976l9.025 7.194a2.362 2.362 0 002.491.28 2.351 2.351 0 001.332-2.122v-14.392a2.347 2.347 0 00-1.332-2.123 2.357 2.357 0 00-2.491.281l-9.025 7.198a2.364 2.364 0 00-.888 1.842c0 .354.08.704.233 1.023.154.318.378.599.655.819z" fill="#3546AB"/><path d="M420.742 62.85H284.768a16.145 16.145 0 00-16.149 16.125v94.631a16.145 16.145 0 0016.144 16.144h135.975a16.142 16.142 0 0016.144-16.144V78.975a16.143 16.143 0 00-16.14-16.124zm1.703 98.071h-139.39V85.81a8.56 8.56 0 018.558-8.558h122.299a8.562 8.562 0 018.563 8.558l-.03 75.111z" fill="#3546AB"/><path d="M339.772 169.075h25.961a9.62 9.62 0 019.618 9.618v29.327a9.615 9.615 0 01-9.618 9.613h-49.035a3.365 3.365 0 010-6.731h13.441v-32.209a9.625 9.625 0 015.948-8.89 9.628 9.628 0 013.685-.728z" fill="#3546AB"/><path d="M352.755 181.337a6.009 6.009 0 100-12.017 6.009 6.009 0 000 12.017z" fill="#3EC1F3"/><path d="M352.755 71.96a1.921 1.921 0 10.001-3.842 1.921 1.921 0 00-.001 3.843z" fill="#30242A"/><path d="M375.351 190.711H330.05" stroke="#30242A" stroke-width="4" stroke-miterlimit="10"/><path d="M213.674 217.633h234.887a9.957 9.957 0 019.956 9.956V433.01H203.718V227.589a9.957 9.957 0 019.956-9.956z" fill="#FFB494"/><path d="M365.908 241.259v34.957H227.344v-34.957h138.564zm1.991-1.991H225.353v38.94h142.546v-38.94z" fill="#A15842"/><path d="M296.626 264.747a6.01 6.01 0 100-12.018 6.01 6.01 0 000 12.018zm69.282 37.087v107.554H227.344V301.834h138.564zm1.991-1.991H225.353v111.536h142.546V299.843z" fill="#A15842"/><path d="M275.952 361.617a6.008 6.008 0 100-12.016 6.008 6.008 0 000 12.016zm41.348 0a6.008 6.008 0 10.001-12.017 6.008 6.008 0 00-.001 12.017z" fill="#A15842"/><path d="M296.984 300.804v109.615" stroke="#A15842" stroke-width="4" stroke-miterlimit="10"/><path d="M436.887 239.268h-47.353v172.111h47.353V239.268z" fill="#A15842"/><path d="M436.887 325.321H389.29" stroke="#FFB494" stroke-width="4" stroke-miterlimit="10"/><path d="M27.022 217.633h167.103a9.955 9.955 0 019.956 9.956V433.01H17.065V227.589a9.956 9.956 0 019.957-9.956z" fill="#3EC1F3"/><path d="M175.477 278.208H45.67v133.171h129.807V278.208z" fill="#30242A"/><path d="M175.477 411.379H45.67L0 318.113h129.802l45.675 93.266z" fill="#3546AB"/><path d="M90.862 217.633H45.67l4.809-10.096h35.574l4.81 10.096zm84.615 0h-45.193l4.809-10.096h35.575l4.809 10.096z" fill="#30242A"/><path d="M54.566 257.055a8.896 8.896 0 100-17.792 8.896 8.896 0 000 17.792z" fill="#F5EBDD"/><path d="M44.71 248.159h7.213" stroke="#30242A" stroke-width="4" stroke-miterlimit="10" stroke-linecap="round"/><path d="M91.903 257.055a8.896 8.896 0 100-17.793 8.896 8.896 0 000 17.793z" fill="#F5EBDD"/><path d="M91.903 238.307v7.209" stroke="#30242A" stroke-width="4" stroke-miterlimit="10" stroke-linecap="round"/><path d="M129.244 257.055a8.896 8.896 0 100-17.792 8.896 8.896 0 000 17.792z" fill="#F5EBDD"/><path d="M129.244 238.307v7.209" stroke="#30242A" stroke-width="4" stroke-miterlimit="10" stroke-linecap="round"/><path d="M166.581 257.055a8.896 8.896 0 000-17.792 8.896 8.896 0 100 17.792z" fill="#F5EBDD"/><path d="M166.581 238.307v7.209" stroke="#30242A" stroke-width="4" stroke-miterlimit="10" stroke-linecap="round"/><path d="M110.69 335.9H42.907a3.125 3.125 0 00-3.126 3.124c0 1.725 1.4 3.124 3.126 3.124h67.783a3.126 3.126 0 003.127-3.124c0-1.725-1.4-3.124-3.127-3.124z" fill="#30242A"/><path d="M205.162 25.813c-8.867 5.7-2.883 17.787 5.286 18.265a32.528 32.528 0 01.966 23.079h12.446l.044-5.242c11.381 2.832 15.572-1.638 17.778-5.675 2.489-4.58 1.752-8.867.901-14.437 0 0 4.067-1.618 3.758-4.072-.249-1.992-4.585-2.723-4.585-2.723a58.798 58.798 0 01-.134-2.724 67.334 67.334 0 00-.548-7.467c-9.558 5.093-21.461 7.736-21.461 7.736s-7.721-11.071-14.451-6.74zm148.151 181.171c5.212 1.992 9.055-1.369 8.094-3.295-.627-1.255-18.663-14.785-37.276-28.535l-21.322 26.588c4.894 1.877 8.119 2.938 8.119 2.938s5.287 8.169 12.984 12.978c0 0 8.169 19.708 12.495 19.23 2.907-.323-.961-11.539-1.922-16.348 0 0 9.618 16.348 15.866 16.348 1.443 0 2.773-.995 2.882-3.365 0 0 3.171.871 4.331-1.443.498-.961.498-2.405.498-3.366 0 0 2.489.692 3.848-.961 2.29-2.767-2.728-11.917-8.597-20.769z" fill="#A15842"/><path d="M152.761 122.445a41.164 41.164 0 00-.851-.717c.279.239.557.478.851.717z" fill="#FF7235"/><path d="M283.055 145.041s-22.182-51.052-31.248-62.98c-9.145-12.022-27.992-11.365-27.992-11.365l.03-3.54h-12.446s13.441 26.923-12.022 38.462c-9.613 31.248-39.422 23.074-46.631 16.827-2.887 5.286-17.309 28.843-9.618 46.63 6.731 13.939 30.77 11.057 30.77 11.057l4.809-10.096h61.068-19.47l15.627-34.11 5.307 12.958s6.745 17.289 21.152 30.77c10.29 9.628 29.521 17.877 40.438 22.063l21.322-26.563a8515.427 8515.427 0 00-41.096-30.113z" fill="#FF7235"/><path d="M175.641 148.217l-9.902 4.515m13.461 19.231l-6.456-43.485" stroke="#30242A" stroke-width="4" stroke-linecap="round" stroke-linejoin="round"/><path d="M220.305 170.016l19.47.02 1.444-21.152-5.287-12.978-15.627 34.11zM230.7 4.337c-4.844-2.708-12.446-5.401-21.033-2.728-15.746 4.903-18.768 18.539-20.849 27.57-1.444 6.247-2.887 13.44-2.887 13.44s-26.922 1.922-24.035 29.327c-14.312 3.27-29.312 22.531-17.807 40.936a38.14 38.14 0 007.821 8.826c.315.259.599.498.851.717 7.208 6.247 37.018 14.437 46.631-16.827 25.483-11.539 12.022-38.461 12.022-38.461a32.528 32.528 0 00-.966-23.08c-8.169-.497-14.153-12.564-5.286-18.264 6.73-4.331 14.436 6.775 14.436 6.775s11.903-2.643 21.461-7.736v-.055c0-.015 7.657-3.694 9.763-10.524 3.858-12.48-12.008-19.21-20.122-9.916z" fill="#FFBE21"/><path d="M240.477 149.626c-2.728-6.407-7.398-17.782-10.315-27.181m103.631 98.638l-1.712-3.933m21.167 15.955c-3.126-4.077-9.618-13.212-14.934-20.281m20.41 15.303c-3.823-5.621-9.682-14.437-13.66-20.107m9.384-1.255a267.049 267.049 0 00-5.974-8.801" stroke="#30242A" stroke-width="4" stroke-linecap="round" stroke-linejoin="round"/><path d="M232.014 3.974c1.105.781 2.34 1.692 3.435 2.608m-50.733 36.595l-1.19 5.71m-22.611 23.96a33.83 33.83 0 004.346 11.136" stroke="#CA7358" stroke-width="4" stroke-linecap="round" stroke-linejoin="round"/><path d="M223.626 62.85a32.208 32.208 0 01-5.506-2.528" stroke="#30242A" stroke-width="4" stroke-linecap="round" stroke-linejoin="round"/><path d="M259.006 268.515a8.886 8.886 0 01-15.866 0 8.89 8.89 0 01-7.932 4.882 8.887 8.887 0 01-7.933-4.882 8.881 8.881 0 01-15.861 0 9.03 9.03 0 01-1.239 1.827c13.257 35.748 5.082 53.058 1.239 87.671a146.856 146.856 0 00-.667 22.113h45.994c1.672-14.576 5.112-34.265 7.079-58.678a17.311 17.311 0 01-10.985-29.608 17.308 17.308 0 0111.941-4.97h.497c0-4.66-.144-9.235-.378-13.72a8.892 8.892 0 01-5.889-4.635zm-63.457 0a8.886 8.886 0 01-15.866 0 8.89 8.89 0 01-7.933 4.882 8.886 8.886 0 01-7.932-4.882 8.88 8.88 0 01-13.601 2.838c-4.48 13.202-9.643 17.458-32.552 52.525a186.955 186.955 0 00-15.473 29.242l41.32 21.003c8.617-14.358 21.724-31.811 32.657-49.285a17.3 17.3 0 01-6.627-22.915 17.306 17.306 0 0122.557-7.76c3.704-8.807 6.367-16.518 8.035-21.407a8.925 8.925 0 01-4.585-4.241z" fill="#F5EBDD"/><path d="M204.564 273.329c.284-.035.568-.08.846-.139h.06a9.09 9.09 0 00.792-.224l.129-.035c.274-.1.548-.204.812-.329h.034c.264-.124.498-.259.772-.408l.045-.03c.259-.153.51-.319.752-.498a8.775 8.775 0 001.349-1.264 9.016 9.016 0 001.239-1.827 8.888 8.888 0 007.931 4.883 8.881 8.881 0 007.93-4.883 8.888 8.888 0 0012.59 3.563 8.888 8.888 0 003.275-3.563 8.883 8.883 0 007.933 4.882 8.883 8.883 0 007.933-4.882 8.89 8.89 0 005.879 4.639 288.101 288.101 0 00-5.033-40.203 27.673 27.673 0 01-21.496-2.893c-13.794-7.88-17.249-46.441-18.046-60.097h-41.568c-24.039 21.636-23.557 86.058-28.126 100.182-.125.388-.254.761-.379 1.135a8.886 8.886 0 0013.601-2.838 8.89 8.89 0 007.932 4.882 8.887 8.887 0 007.933-4.882 8.886 8.886 0 0015.866 0 8.927 8.927 0 004.565 4.222 8.803 8.803 0 001.603.497h.079c.229.045.458.08.692.105h.189c.264 0 .533.04.802.04s.592 0 .886-.045l.199.01z" fill="#30242A"/><path d="M218.145 426.757h39.422s1.414-9.319 6.407-15.402c-3.898-2.823-7.064-6.328-7.851-12.003-.672-4.844-.288-11.275.618-19.231h-45.994a212.984 212.984 0 007.398 46.636zM88.821 398.381l-1.24-.617a3.126 3.126 0 00-.383-.159l36.899 18.857s5.476-7.507 12.53-10.574a28.837 28.837 0 01-2.136-6.063c-1.354-5.974 2.579-14.994 9.016-25.717l-41.319-21.003c-10.57 24.965-13.367 45.276-13.367 45.276z" fill="#FF7235"/><path d="M218.145 426.757h-1.205a3.127 3.127 0 100 6.248h66.115c0-12.943-11.081-15.861-19.071-21.65-4.978 6.083-6.407 15.402-6.407 15.402h-39.432zm-94.048-10.28L87.198 397.62a3.015 3.015 0 00-3.82 3.899c.266.72.798 1.31 1.485 1.651l58.743 29.84c5.64-11.684-2.424-17.494-6.999-27.107-7.034 3.067-12.51 10.574-12.51 10.574z" fill="#30242A"/><path d="M247.471 304.169a17.305 17.305 0 0016.349 17.279c.786-9.812 1.339-20.41 1.438-31.701v-2.872h-.497a17.31 17.31 0 00-17.29 17.294zm-79.81 5.77a17.293 17.293 0 008.503 14.894 318.055 318.055 0 003.519-5.759 203.71 203.71 0 0012.396-24.916 17.31 17.31 0 00-24.393 15.781h-.025zm70.675-79.821a27.672 27.672 0 0021.516 2.818c-7.467-38.068-20.077-62.915-20.077-62.915H220.29c.797 13.67 4.252 52.232 18.046 60.097z" fill="#FFBE21"/><path d="M238.346 46.423c-.836.423-3.838.547-4.839-1.842" stroke="#30242A" stroke-width="4" stroke-linecap="round" stroke-linejoin="round"/><path d="M236.41 35.909a1.443 1.443 0 100-2.887 1.443 1.443 0 000 2.887z" fill="#30242A"/><path d="M209.01 33.982l4.804 3.365" stroke="#30242A" stroke-width="4" stroke-linecap="round" stroke-linejoin="round"/><path d="M178.239 170.036h61.536" stroke="#30242A" stroke-width="4" stroke-miterlimit="10" stroke-linecap="round"/><path d="M195.902 171.48s11.261 16.099 5.974 17.837c-4.889 1.603-5.849-10.42-5.974-17.837zm-.348 0s-5.775 14.437-10.101 12.017c-2.818-1.563 4.326-8.637 10.101-12.017z" stroke="#A15842" stroke-width="4" stroke-linecap="round" stroke-linejoin="round"/><path d="M107.33 167.632H29.929a3.125 3.125 0 100 6.248h77.401a3.125 3.125 0 100-6.248z" fill="#30242A"/><path d="M68.63 169.558c-22.597 0-32.692-16.348-32.692-16.348v40.363a13.963 13.963 0 0013.939 13.939h37.45a13.965 13.965 0 0013.964-13.939V153.21s-10.07 16.348-32.662 16.348z" fill="#FFB494"/><path d="M68.63 169.558c22.59 0 32.686-16.348 32.686-16.348H35.938s10.095 16.348 32.691 16.348z" fill="#A15842"/><path d="M69.346 153.21a6.009 6.009 0 100-12.017 6.009 6.009 0 000 12.017z" fill="#30242A"/><path d="M69.83 115.714a8.896 8.896 0 100-17.792 8.896 8.896 0 000 17.792zm.154-26.678c7.236 0 13.102-5.866 13.102-13.103 0-7.236-5.866-13.102-13.102-13.102-7.237 0-13.103 5.866-13.103 13.102 0 7.237 5.866 13.103 13.103 13.103z" fill="#F5EBDD"/><path d="M507.074 315.245s-4.575 10.295-16.582 10.295c-12.007 0-16.577-10.295-16.577-10.295s-33.733 77.192-.573 117.785h34.31c33.16-40.623-.578-117.785-.578-117.785z" fill="#3EC1F3"/><path d="M490.497 325.52c12.007 0 16.582-10.295 16.582-10.295h-33.164s4.575 10.295 16.582 10.295z" fill="#30242A"/><path d="M521.511 383.945c-18.663.333-40.731 7.069-57.747 30.864m-2.987-49.782c12.525-3.056 36.251-5.974 59.241-.498m-.115 39.234c-8.348.094-23.781 9.553-22.078 28.619" stroke="#F5EBDD" stroke-width="4" stroke-linecap="round" stroke-linejoin="round"/><path d="M500.832 239.766l-9.18 80.273m13.62-48.029l-11.539 47.372" stroke="#30242A" stroke-width="4" stroke-miterlimit="10"/><path d="M481.196 293.828c1.047-2.449-6.391-7.979-16.615-12.35-10.223-4.371-19.359-5.929-20.407-3.479-1.047 2.45 6.391 7.979 16.615 12.35 10.223 4.371 19.359 5.929 20.407 3.479zm38.273 4.242c10.787-4.067 18.799-9.306 17.896-11.701-.903-2.395-10.38-1.039-21.167 3.028-10.786 4.067-18.799 9.306-17.896 11.701.903 2.395 10.38 1.04 21.167-3.028zm-23.152-16.895c1.163-1.605-2.143-5.987-7.385-9.787-5.242-3.8-10.435-5.58-11.599-3.975-1.163 1.605 2.143 5.987 7.385 9.787 5.243 3.8 10.435 5.58 11.599 3.975z" fill="#30242A"/><path d="M467.219 252.888l22.551 67.146" stroke="#30242A" stroke-width="4" stroke-miterlimit="10"/><path d="M496.247 257.364a13.268 13.268 0 019.663-7.51 13.278 13.278 0 018.164 25.018 24.73 24.73 0 00-17.827-17.508z" fill="#FF7235"/><path d="M503.191 264.871a24.841 24.841 0 0110.748-13.79m-8.532 15.557a24.63 24.63 0 0114.934-9.2" stroke="#F5EBDD" stroke-width="4" stroke-miterlimit="10" stroke-linecap="round"/><path d="M514.074 274.872a13.278 13.278 0 01-18.824-9.561 13.285 13.285 0 01.997-7.947 24.73 24.73 0 0117.827 17.508zm-38.208-36.734a13.278 13.278 0 10-15.776 19.36 24.74 24.74 0 0115.776-19.36z" fill="#FF7235"/><path d="M469.793 246.372a24.787 24.787 0 00-12.207-12.515m10.205 14.511a24.63 24.63 0 00-15.88-7.467" stroke="#F5EBDD" stroke-width="4" stroke-miterlimit="10" stroke-linecap="round"/><path d="M460.09 257.498a13.277 13.277 0 0015.776-19.38 24.74 24.74 0 00-15.776 19.38zm53.456-25.254a13.269 13.269 0 00-5.394-10.984 13.277 13.277 0 00-18.307 18.904 24.737 24.737 0 0123.701-7.92z" fill="#FF7235"/><path d="M504.018 235.948a24.816 24.816 0 00-3.614-17.11m.856 17.722a24.647 24.647 0 00-9.409-14.82" stroke="#F5EBDD" stroke-width="4" stroke-miterlimit="10" stroke-linecap="round"/><path d="M489.855 240.164a13.273 13.273 0 0021.101-.347 13.274 13.274 0 002.59-7.573 24.735 24.735 0 00-23.691 7.92z" fill="#FF7235"/><path d="M476.364 238.636a24.743 24.743 0 00-15.776 19.36m53.192-25.752a24.74 24.74 0 00-23.895 7.278m25.508 34.33a24.744 24.744 0 00-18.613-16.672" stroke="#F5EBDD" stroke-width="4" stroke-miterlimit="10" stroke-linecap="round"/></svg>