<svg width="548" height="437" fill="none" xmlns="http://www.w3.org/2000/svg"><g filter="url(#filter0_d_14:946)"><path d="M285.629 57.93h-75.308v111.405h75.308V57.931zm-97.371 0h22.063v111.405h-49.463V85.331a27.402 27.402 0 0127.4-27.4z" fill="#3EC1F3"/><path d="M184.253 147.501c6.037 0 10.932-5.35 10.932-11.948 0-6.599-4.895-11.948-10.932-11.948-6.038 0-10.932 5.349-10.932 11.948 0 6.598 4.894 11.948 10.932 11.948z" fill="#F4E6D8"/><path d="M199.627 135.811h-30.749a15.366 15.366 0 009.561 14.232v3.889h11.627v-3.889a15.369 15.369 0 009.561-14.232z" fill="#3546AB"/><path d="M160.289 105.965l49.094-19.929" stroke="#3546AB" stroke-width="4" stroke-miterlimit="10" stroke-linecap="round"/><path d="M209.432 57.93v111.405" stroke="#3546AB" stroke-width="4" stroke-miterlimit="10"/><path d="M486.157 350.254v-42.775l-25.845-26.292h-72.635l-25.845 26.292v39.659h-90.459v-16.492c-28.966-3.121-20.056-24.509-36.097-24.509h-28.518a10.832 10.832 0 00-5.867 1.702l-40.262-24.883h-41.438l-51.913 32.082h.112v40.393l-34.867 21.548v36.985h479.478v-37.428l-25.844-26.282z" fill="#F5EBDD"/><path d="M529.384 413.974h-28.076c0-7.748 6.285-15.593 14.038-15.593s14.038 7.845 14.038 15.593z" fill="#FFB494"/><path d="M544 413.974h-20.858c0-5.755 4.672-11.583 10.427-11.583S544 408.219 544 413.974z" fill="#FFB494"/><path d="M134.269 226.834c13.61-4.214 31.109-10.271 84.359 33.277 53.25 43.548 73.398 15.068 67.949 8.487-4.374-5.298-28.805 8.997-10.621 28.27 17.281 18.325 67.925.797 81.812-10.421 19.764-15.963 48.059-28.519 73-29.423" stroke="#FFB494" stroke-width="4" stroke-linecap="round" stroke-linejoin="round" stroke-dasharray="12 12"/><path d="M171.109 315.048l-51.918-32.082m-51.315 32.081H171.22v98.441m-105.167.185l.486-57.756M33.01 376.989h32.93m.672-6.908h103.826m190.276 14.709h73.529m-263.134-69.743h24.226m166.983-7.573h72.149v106.014m0-.486V307.474h50.717m-241.887 24.061h27.59m189.425 81.953v-36.942h50.926m-51.208-95.077l-25.563 26.005m0 42.78l25.845 26.292m25.096-27.405H434.69" stroke="#FFB494" stroke-width="4" stroke-linecap="round" stroke-linejoin="round"/><path d="M207.303 307.027c-16.041 0-7.131 21.388-36.097 24.508h72.203c-28.98-3.116-20.066-24.508-36.106-24.508zm-36.097 105.975V331.54h72.188v81.948" stroke="#FFB494" stroke-width="4" stroke-linecap="round" stroke-linejoin="round"/><path d="M243.297 413.002v-57.848h117.422v58.334m-117.213-59.423l27.123-7.826" stroke="#FFB494" stroke-width="4" stroke-linecap="round" stroke-linejoin="round"/><path d="M360.719 347.62v7.534H243.297" stroke="#FFB494" stroke-width="4" stroke-linecap="round" stroke-linejoin="round"/><path d="M266.624 368.526h.116a7.953 7.953 0 017.953 7.952v37.501h-16.041v-37.501a7.954 7.954 0 014.923-7.352 7.934 7.934 0 013.049-.6zm71.745 0h.136a7.953 7.953 0 017.952 7.952v37.501h-16.04v-37.501a7.953 7.953 0 017.952-7.952zm-35.873 0h.136a7.955 7.955 0 017.953 7.952v37.501h-16.041v-37.501a7.953 7.953 0 017.952-7.952zm184.487 18.267h.136a7.953 7.953 0 017.952 7.952v19.229h-16.04v-19.229a7.949 7.949 0 017.952-7.952zm-398.269 0h.121a7.953 7.953 0 017.953 7.952v19.229H80.747v-19.229a7.952 7.952 0 017.952-7.952h.015zm61.047 0h.136a7.94 7.94 0 015.629 2.325 7.942 7.942 0 011.726 2.582c.401.965.607 2 .607 3.045v19.229h-16.041v-19.229a7.955 7.955 0 017.943-7.952zm-30.526 0h.136a7.953 7.953 0 017.952 7.952v19.229h-16.04v-19.229a7.949 7.949 0 017.952-7.952zm-22.438-57.484h-16.04v27.181h16.04v-27.181zm61.052 0h-16.041v27.181h16.041v-27.181zm-30.526 0h-16.04v27.181h16.04v-27.181zm73.957 16.041h-13.328v20.05h13.328v-20.05zm25.364 0h-13.329v20.05h13.329v-20.05zm-25.364 35.206h-13.328v20.051h13.328v-20.051zm25.364 0h-13.329v20.051h13.329v-20.051zm164.917-61.941h-13.329v20.051h13.329v-20.051zm25.363 0h-13.328v20.051h13.328v-20.051zm51.248 0h-13.329v20.051h13.329v-20.051zm-76.611 35.202h-13.329v20.051h13.329v-20.051zm25.363 0h-13.328v20.051h13.328v-20.051zM136.797 201.64c0 10.028-10.694 21.611-14.933 21.611-4.238 0-14.927-11.583-14.927-21.611a14.934 14.934 0 0125.393-10.384 14.934 14.934 0 014.467 10.384z" fill="#FFB494"/><path d="M121.864 206.321a4.68 4.68 0 100-9.361 4.68 4.68 0 000 9.361z" fill="#fff"/><path d="M462.985 234.572c0 10.028-10.694 21.611-14.927 21.611-4.234 0-14.928-11.583-14.928-21.611a14.928 14.928 0 0129.855 0z" fill="#FFB494"/><path d="M448.058 239.253a4.681 4.681 0 100-9.363 4.681 4.681 0 000 9.363z" fill="#fff"/><path d="M18.616 413.974h28.076c0-7.748-6.285-15.593-14.038-15.593s-14.038 7.845-14.038 15.593z" fill="#FFB494"/><path d="M4 413.974h20.858c0-5.755-4.672-11.583-10.427-11.583S4 408.219 4 413.974z" fill="#FFB494"/><path d="M258.375 138.046c-34.594 21.15-46.625 80.062-53.955 101.557-7.928 23.244-25.388 22.714-45.648 29.481-20.259 6.766-19.506 21.518-19.506 21.518a134.842 134.842 0 00-13.547 10.553l25.65 32.781c6.052-4.175 15.035-9.41 27.357-16.852 25.451-15.375 48.234-29.811 62.938-45.852 14.703-16.041 53.347-86.376 53.347-86.376l-36.636-46.81z" fill="#4856DF"/><path d="M151.37 333.936l-25.656-32.776c-11.471 10.208-18.344 19.929-21.8 25.587l36.169 46.207c5.094-9.235 1.045-22.233 1.458-27.906.277-3.417 3.378-6.659 9.829-11.112z" fill="#30242A"/><path d="M101.104 331.841l35.562 45.434a16.385 16.385 0 003.402-4.316l-36.164-46.207a53.741 53.741 0 00-2.8 5.089z" fill="#3EC1F3"/><path d="M138.216 335.881l6.888 3.835m-9.955 3.096l6.902 1.565" stroke="#fff" stroke-width="4" stroke-linecap="round" stroke-linejoin="round"/><path d="M147.466 303.663l-12.288 9.605m6.066-17.562l-12.288 9.605m24.732 6.31l-12.288 9.605m18.51-1.648l-12.288 9.605m-9.469-38.158l26.963 34.493" stroke="#3EC1F3" stroke-width="4" stroke-miterlimit="10" stroke-linecap="round"/><path d="M269.083 229.663c-5.857-9.236-11.588-19.443-15.943-29.977" stroke="#30242A" stroke-width="4" stroke-linecap="round" stroke-linejoin="round"/><path d="M278.722 8.467a4.234 4.234 0 100-8.468 4.234 4.234 0 000 8.468z" fill="#3546AB"/><path d="M292.162 65.951l-.291-4.919c5.663.71 9.857-.131 12.856-1.667l-12.856-10.349s4.452-1.779 1.779-11.14l14.31-5.202c-.754-1.944-1.254-6.63-2.698-11.666l-8.521 3.71a27.66 27.66 0 01-8.331 9.638 26.761 26.761 0 00-4.798-3.928c-.233-.15-.486-.291-.719-.432h-.025c-.238-.136-.486-.267-.724-.394h-.039c-.243-.121-.486-.243-.734-.35l-.048-.087a12.173 12.173 0 00-.734-.306h-.068c-.248-.088-.486-.17-.739-.248h-.083a9.123 9.123 0 00-.739-.19h-.087a7.547 7.547 0 00-.739-.122h-.097a9.169 9.169 0 00-.734-.043c-2.124-.03-4.229.836-5.984 3.29a8.341 8.341 0 00-1.623 4.91c.034 5.225 4.895 10.208 9.235 11.666-3.431 7.237-14.519 11.753-18.772 13.255.136 1.658.267 3.199.384 4.574h31.619zm86.493 29.855c-2.012 0-2.984-1.633-2.172-3.645l6.805-16.804-.054-.049.117-.112a53.753 53.753 0 005.24-5.687c3.072-3.913 3.995-6.756 2.916-7.918a1.865 1.865 0 00-1.157-.544 3.754 3.754 0 00-1.332.078c-3.47.758-9.415 5.487-16.04 13.289-8.016 9.425-23.604 28.076-23.604 28.076-1.624-1.24-3.981-3.34-6.805-5.872l-22.428 28.834a102.184 102.184 0 0015.331 9.872 16.492 16.492 0 0114.658-11.387 16.483 16.483 0 0115.965 9.467c13.513-10.095 24.187-28.11 29.189-37.598h-16.629z" fill="#EAA58B"/><path d="M304.348 72.188h-6.853c13.07 7.874 7.291 22.729 7.291 22.729s17.854 12.477 5.799 27.629a13.7 13.7 0 002.226-3.121s2.878 2.644 7.291 6.027l22.428-28.834c-10.417-9.294-27.327-24.43-38.182-24.43z" fill="#FFB494"/><path d="M235.724 96.244s-13.124 10.941-4.254 25.592l4.672-26.249-.418.657zm24.799-30.293v.16l.564-.16h-.564z" fill="#FF7235"/><path d="M278.892 48.122c-4.321-1.458-9.182-6.426-9.235-11.666l-11.136 4.86c.432 6.135 1.059 13.869 1.58 20.061 4.292-1.502 15.389-6.017 18.791-13.255zm12.979.894l12.856 10.349a11.732 11.732 0 005.683-5.93c1.895-4.745.671-8.828-.807-14.126 0 0 3.767-2.523 3.179-4.86-.486-1.901-4.778-1.639-4.778-1.639l-.044-.121-14.31 5.2c2.673 9.348-1.779 11.127-1.779 11.127zm-3.461-14.67a27.661 27.661 0 008.331-9.638l-13.124 5.71a26.754 26.754 0 014.793 3.928z" fill="#30242A"/><path d="M281.371 29.209l-.048-.044.048.044zm-10.061 2.289c1.754-2.455 3.859-3.32 5.983-3.29h-.048c-1.221-13.49 1.788-20.824 4.019-24.305a42.81 42.81 0 00-6.319 1.43c-15.462 4.68-17.236 19.929-16.803 28.999.082 1.818.238 4.239.427 6.97l11.136-4.86a8.342 8.342 0 011.605-4.944z" fill="#3546AB"/><path d="M282.868 29.972c-.238-.137-.486-.268-.724-.394.248.126.486.258.724.394zm.744.447c-.233-.151-.486-.292-.719-.433.243.15.486.282.719.433zm-3.922-1.833zm2.415.972c-.243-.121-.486-.243-.734-.35.248.107.491.229.734.35zm-4.078-1.308a9.169 9.169 0 00-.734-.043c.243-.015.491.02.734.044zm.836.132zm1.648.472c-.248-.088-.486-.17-.739-.248.248.073.491.16.739.248zm.812.311c-.238-.112-.486-.21-.734-.306.248.116.486.213.734.306z" fill="#3EC1F3"/><path d="M277.245 28.193h.048c.243 0 .486 0 .734.043h.097c.248.03.486.069.739.122h.088c.248.053.486.117.739.19h.082c.248.077.486.16.739.247h.068c.248.098.486.195.734.307l.058.024c.248.107.486.228.734.35h.039c.248.126.486.258.725.394h.024c.243.14.486.282.719.432l13.124-5.711 8.521-3.709c-2.6-9.07-8.263-19.317-23.997-17.08-2.227 3.577-5.235 10.912-4.015 24.39z" fill="#3EC1F3"/><path d="M351.133 123.882a16.491 16.491 0 00-15.695 11.442c7.155 3.636 14.723 5.872 20.6 3.709a40.219 40.219 0 0010.042-5.629 16.482 16.482 0 00-14.947-9.522z" fill="#CA7358"/><path d="M306.599 151.287c16.04-10.475 4.861-28.309 3.986-28.742 12.03-15.151-5.794-27.628-5.794-27.628s5.774-14.855-7.292-22.73h-4.967l-.37-6.236h-31.06l-.564.16.525 6.077H251.04l-14.898 23.404-4.672 26.249.239.393c-.159.295-.321.592-.486.89-3.014 5.93-3.456 10.975-2.684 15.068 1.609 8.56 8.502 13.071 8.502 13.071h69.558v.024z" fill="#FF7235"/><path d="M237.06 159.099h69.515v-7.812H237.06v7.812z" fill="#30242A"/><path d="M229.798 94.917h74.993m-73.204 27.628h79.387M293.65 75.308l-.166-2.634m-8.302 1.298l-.442-7.131m-6.241 7.131l-.443-7.131m-6.241 7.131l-.442-7.131" stroke="#A15842" stroke-width="4" stroke-miterlimit="10" stroke-linecap="round"/><path d="M348.441 102.115l-5.328 6.616" stroke="#A15842" stroke-width="4" stroke-linecap="round" stroke-linejoin="round"/><path d="M285.629 60.604A28.16 28.16 0 00291.715 62" stroke="#A15842" stroke-width="4" stroke-miterlimit="10" stroke-linecap="round"/><path d="M388.591 69.51c.024 1.307.972 2.23 2.464 2.23h14.539c2.012 0 4.306-1.633 5.123-3.65l4.433-10.976c.812-2.012-.16-3.645-2.173-3.645h-14.543c-2.013 0-4.307 1.633-5.119 3.645l-1.808 4.477c1.079 1.167.156 4.03-2.916 7.918z" fill="#F5EBDD"/><path d="M418.528 46.343h-3.927l-.345.85a3.778 3.778 0 01-3.184 2.27h-7.495c-1.25 0-1.857-1.016-1.352-2.27l.345-.85h-3.927c-2.017 0-4.307 1.633-5.123 3.65l-4.501 11.136a3.747 3.747 0 011.331-.078c.438.04.848.233 1.157.545l1.808-4.477c.812-2.012 3.107-3.645 5.119-3.645h14.543c2.013 0 2.985 1.633 2.173 3.645l-4.433 10.976c-.817 2.017-3.111 3.65-5.123 3.65h-14.539c-1.512 0-2.43-.923-2.464-2.23a53.755 53.755 0 01-5.255 5.681l-.063.16-6.805 16.805c-.812 2.012.16 3.645 2.173 3.645h19.89c2.012 0 4.307-1.633 5.119-3.645l17.012-42.168c.856-2.017-.116-3.65-2.134-3.65zm-19.443 42.775a3.674 3.674 0 01-1.239 1.536 3.298 3.298 0 01-1.886.69h-11.102c-1.235 0-1.828-.996-1.332-2.226a3.725 3.725 0 013.13-2.227h11.141c1.206.005 1.799 1.002 1.303 2.232l-.015-.005z" fill="#3546AB"/><path d="M397.773 86.897h-11.141a3.72 3.72 0 00-3.13 2.226c-.487 1.23.097 2.226 1.331 2.226h11.141a3.295 3.295 0 001.886-.69 3.67 3.67 0 001.24-1.536c.496-1.23-.097-2.227-1.327-2.227zm5.804-37.434h7.495a3.772 3.772 0 003.184-2.27l.345-.85H402.57l-.345.85c-.505 1.255.102 2.27 1.352 2.27z" fill="#3EC1F3"/><path d="M316.379 16.935l-29.855 13.367" stroke="#30242A" stroke-width="4" stroke-linecap="round" stroke-linejoin="round"/><path d="M306.788 44.817c-.894.238-3.82-.253-4.301-2.766" stroke="#000" stroke-width="4" stroke-miterlimit="10" stroke-linecap="round"/><path d="M302.185 32.105a1.439 1.439 0 100-2.877 1.439 1.439 0 000 2.877z" fill="#30242A"/><path d="M277.488 37.195l5.225 3.325" stroke="#A15842" stroke-width="4" stroke-miterlimit="10" stroke-linecap="round"/><path d="M288.75 33.423l5.794 4.452m-16.935 10.699l15.598.442" stroke="#30242A" stroke-width="4" stroke-linecap="round" stroke-linejoin="round"/><path d="M338.194 152.848a6.683 6.683 0 016.684 6.683v0a6.715 6.715 0 01-.503 2.565 6.707 6.707 0 01-3.618 3.631 6.71 6.71 0 01-2.563.512m9.376-13.391a6.681 6.681 0 016.665 6.683 6.69 6.69 0 01-6.665 6.708" stroke="#FF7235" stroke-width="4" stroke-miterlimit="10"/><path d="M395.746 153.737h-73.622a5.745 5.745 0 00-5.745 5.746v.097a5.745 5.745 0 005.745 5.745h73.622a5.745 5.745 0 005.745-5.745v-.097a5.745 5.745 0 00-5.745-5.746z" fill="#30242A"/><path d="M408.093 400.728L363.75 154.03l-11.406 2.05 44.344 246.698 11.405-2.05z" fill="#30242A"/><path d="M322.221 153.737h-.097a5.745 5.745 0 00-5.745 5.746v.097a5.745 5.745 0 005.745 5.745h.097a5.745 5.745 0 005.746-5.745v-.097a5.745 5.745 0 00-5.746-5.746z" stroke="#FF7235" stroke-width="4" stroke-miterlimit="10"/><path d="M377.839 153.212a6.69 6.69 0 014.491 6.319v0a6.685 6.685 0 01-4 6.12m7.286-12.439a6.692 6.692 0 014.491 6.319v0a6.685 6.685 0 01-4 6.12" stroke="#FF7235" stroke-width="4" stroke-miterlimit="10" stroke-linecap="round"/><path d="M402.381 402.391H239.734v11.588h162.647v-11.588z" fill="#30242A"/><path d="M249.757 428.236c7.876 0 14.261-6.385 14.261-14.262 0-7.876-6.385-14.261-14.261-14.261-7.877 0-14.262 6.385-14.262 14.261 0 7.877 6.385 14.262 14.262 14.262z" fill="#30242A"/><path d="M249.757 419.321a5.347 5.347 0 100-10.694 5.347 5.347 0 000 10.694z" fill="#FFB494"/><path d="M404.908 428.236c7.877 0 14.262-6.385 14.262-14.262 0-7.876-6.385-14.261-14.262-14.261-7.876 0-14.261 6.385-14.261 14.261 0 7.877 6.385 14.262 14.261 14.262z" fill="#30242A"/><path d="M404.908 419.321a5.347 5.347 0 100-10.694 5.347 5.347 0 000 10.694z" fill="#FFB494"/><path d="M272.039 413.974H227.48a22.28 22.28 0 0137.918-15.542 22.281 22.281 0 016.641 15.542zm155.146 0h-44.559a22.281 22.281 0 0144.559 0z" fill="#FF7235"/><path d="M293.786 363.621h41.676c.486-7.291 1.867-17.469 3.563-31.449 3.578-29.52 6.261-56.356 2.683-77.821-3.577-21.466-35.133-95.272-35.133-95.272h-59.433c-4.667 40.272 34.307 86.065 46.712 105.086 13.416 20.575 2.236 33.991-4.919 54.115-7.155 20.123 4.919 28.625 4.919 28.625a134.148 134.148 0 00-.068 16.716z" fill="#4856DF"/><path d="M300.523 397.044h58.679c-4.146-9.721-16.862-14.529-21.071-18.359-2.591-2.353-3.194-6.941-2.669-15.069h-41.676c.909 15.555 4.375 27.138 6.737 33.428z" fill="#30242A"/><path d="M302.798 402.391h57.697a16.294 16.294 0 00-1.293-5.347h-58.679a53.714 53.714 0 002.275 5.347z" fill="#3EC1F3"/><path d="M309.992 348.47v14.631m-10.101-14.631v14.631m20.201-14.631v14.631m10.101-14.631v14.631m-36.232-15.078h42.775" stroke="#3EC1F3" stroke-width="4" stroke-miterlimit="10" stroke-linecap="round"/><path d="M320.817 193.673c-1.459-3.606-2.849-7.096-4.185-10.377l-21.874-3.84v.077a9.423 9.423 0 007.646 10.908l18.413 3.232z" fill="#3EC1F3"/><path d="M328.856 375.652l6.908-2.829m-3.34 9.517l5.77-4.656" stroke="#fff" stroke-width="4" stroke-linecap="round" stroke-linejoin="round"/><path d="M404.165 90.897s7.651.301 8.263-6.382c0 0 5.464-2.513 4.035-7.505 0 0 4.996-1.43 3.567-6.426-.092-.316 2.839-.885 2.693-5.002-.214-6.008-4.287-10.334-6.066-10.781-5.347-1.337-3.315 7.35-3.568 7.13-3.116-2.673-7.665-3.888-9.289-2.527-2.829 2.372-.865 5.541-.865 5.541s-3.626-.855-5.4 1.765c-2.159 3.178 1.701 6.144 1.701 6.144s-4.044.452-3.369 4.194c.749 4.186 7.034 5.119 10.014 9.503l-1.716 4.346z" fill="#EAA58B"/><path d="M399.071 72.085c4.258 1.6 11.665 5.143 13.77 10.99m-8.997-18.427c3.646 1.989 10.086 6.072 12.988 11.399m-3.053-14.801c2.397 2.13 4.997 4.963 6.587 8.263" stroke="#A15842" stroke-width="4" stroke-linecap="round" stroke-linejoin="round"/><path d="M261.121 72.188s15.973 24.056 11.588 47.237c-3.12 16.488-40.553 30.774-62.388 35.634v-12.91s45.453-11.136 50.8-31.192c3.242-12.152-9.804-38.77-9.804-38.77" fill="#F5EBDD"/><path d="M366.732 150.198c-2.674-6.688-11.141-13.814-20.945-17.382-18.841-6.849-64.615 3.121-64.615 3.121l-6.858-14.646-33.749 16.527c4.861 9.483 10.694 17.455 16.653 22.967a16.483 16.483 0 0117.312-5.501 16.475 16.475 0 0111.853 13.765c18.66-1.459 39.299-9.989 45.152-15.254 0 0 3.563 3.121 7.573 3.563 0 1.337-6.237 19.162 4.904 15.151 0 0 3.116 4.011 7.574-.442 0 0 3.12 4.453 7.578.442 0 0 2.43 1.522 5.789-2.226 4.005-4.53 5.191-11.583 1.779-20.085z" fill="#EAA58B"/><path d="M251.317 72.188h-1.103c-9.046 0-23.857 6.688-22.073 24.012a119.43 119.43 0 0012.419 41.579l33.749-16.526-22.992-49.065z" fill="#FFB494"/><path d="M270.036 154.626a16.469 16.469 0 00-12.818 6.12 45.099 45.099 0 003.889 3.242c6.275 4.589 15.496 5.765 25.276 5.002a16.481 16.481 0 00-16.347-14.364z" fill="#CA7358"/><path d="M344.401 171.761c1.945-3.889 6.358-13.97 3.17-20.697m-77.982-13.815l10.504-2.153m72.197 36.49c2.022-4.103 6.397-13.994 3.301-20.522m4.477 21.008c1.944-3.918 6.265-14.32 3.101-21.008" stroke="#A15842" stroke-width="4" stroke-linecap="round" stroke-linejoin="round"/></g><defs><filter id="filter0_d_14:946" x="0" y="0" width="548" height="436.236" filterUnits="userSpaceOnUse" color-interpolation-filters="sRGB"><feFlood flood-opacity="0" result="BackgroundImageFix"/><feColorMatrix in="SourceAlpha" values="0 0 0 0 0 0 0 0 0 0 0 0 0 0 0 0 0 0 127 0" result="hardAlpha"/><feOffset dy="4"/><feGaussianBlur stdDeviation="2"/><feComposite in2="hardAlpha" operator="out"/><feColorMatrix values="0 0 0 0 0 0 0 0 0 0 0 0 0 0 0 0 0 0 0.25 0"/><feBlend in2="BackgroundImageFix" result="effect1_dropShadow_14:946"/><feBlend in="SourceGraphic" in2="effect1_dropShadow_14:946" result="shape"/></filter></defs></svg>