<svg width="540" height="434" fill="none" xmlns="http://www.w3.org/2000/svg"><path d="M97.183 231.623H85.42v199.942h11.764V231.623z" fill="#FFBE21"/><path d="M97.188 234.372H85.42" stroke="#A15842" stroke-width="4" stroke-miterlimit="10"/><path d="M32.037 391.446a17.438 17.438 0 0126.567-8.476 17.438 17.438 0 016.368 8.476 17.44 17.44 0 0115.504-11.673 43.458 43.458 0 00-5.47-7.664l-6.332-7.122a14.428 14.428 0 01-1.916-16.444l5.374-9.987c-1.508 1.519-10.23 9.685-23.47 9.685-13.239 0-21.961-8.166-23.47-9.685h-.024l5.379 9.987a14.416 14.416 0 01-1.974 16.444l-6.327 7.093a43.633 43.633 0 00-5.484 7.664 17.446 17.446 0 0115.275 11.702zm49.403 10.092a17.44 17.44 0 00-16.468 11.706 17.433 17.433 0 00-26.57-8.482 17.433 17.433 0 00-6.365 8.482 17.448 17.448 0 00-20.827-11.155 43.38 43.38 0 0012.454 29.476h49.905a43.381 43.381 0 0012.454-29.409 17.316 17.316 0 00-4.584-.618z" fill="#3546AB"/><path d="M48.624 348.26c13.239 0 21.961-8.166 23.47-9.685h-46.94c1.508 1.504 10.23 9.685 23.47 9.685z" fill="#30242A"/><path d="M32.037 413.244a17.433 17.433 0 0126.57-8.482 17.433 17.433 0 016.365 8.482 17.436 17.436 0 0121.075-11.088 43.442 43.442 0 00-5.561-22.383 17.435 17.435 0 00-15.505 11.672 17.44 17.44 0 00-32.935 0 17.441 17.441 0 00-15.275-11.658 43.436 43.436 0 00-5.551 22.302 17.448 17.448 0 0120.826 11.155h-.01z" fill="#3EC1F3"/><path d="M52.101 346.89c.958-5.862 5.312-29.103 16.262-41.734m-21.315 41.902c-.072-6.658-.757-39.349-7.257-58.853" stroke="#30242A" stroke-width="4" stroke-miterlimit="10" stroke-linecap="round"/><path d="M75.857 324.184c9.6-4.225 16.613-9.4 15.662-11.56-.95-2.16-9.503-.486-19.104 3.738-9.6 4.225-16.613 9.4-15.662 11.56.95 2.16 9.503.486 19.104-3.738zm-.006-59.426c3.452-4.666 4.93-9.424 3.304-10.628-1.627-1.203-5.744 1.604-9.196 6.27-3.451 4.666-4.93 9.424-3.303 10.628 1.627 1.203 5.744-1.604 9.195-6.27zm-51.979 62.743c12.516-1.893 22.39-5.219 22.057-7.429-.335-2.21-10.752-2.468-23.267-.575C10.146 321.39.27 324.716.605 326.926c.334 2.21 10.752 2.468 23.267.575z" fill="#30242A"/><path d="M15.128 294.854v.033a8.471 8.471 0 01-.78 15.176 8.47 8.47 0 01-6.136.223v.029c10.49 4.713 20.553 5.073 22.469.805 1.916-4.268-5.058-11.553-15.553-16.266zm31.015-34.162c-2.232-.579-5.135 2.798-7.257 8.023-2.553-6.346-6.256-10.595-8.751-9.771-2.495.824-2.94 6.438-1.212 13.057-4.818-2.931-9.158-3.918-10.61-2.122-1.848 2.29 1.715 8.229 7.961 13.273a35.763 35.763 0 005.71 3.803 8.474 8.474 0 015.47-5.945 8.468 8.468 0 017.965 1.347 35.921 35.921 0 002.233-6.265c2.016-7.765 1.34-14.662-1.51-15.4zm48.693 35.258c-.69-2.203-5.091-2.874-10.647-1.916 4.033-5.522 5.68-10.911 3.664-12.592-2.017-1.681-7.022.91-11.726 5.877-.057-5.642-1.518-9.848-3.808-10.13-2.917-.36-6.078 5.81-7.055 13.77a35.883 35.883 0 00-.211 6.864 8.468 8.468 0 0111.017 8.972 36.49 36.49 0 006.5-1.437c7.649-2.381 13.143-6.601 12.266-9.408z" fill="#FF7235"/><path d="M73.062 299.365a8.463 8.463 0 00-8.009-1.556c.273 3.789 1.231 6.706 2.673 7.764 1.346 1.245 4.46 1.662 8.334 1.207a8.454 8.454 0 00-2.998-7.415zM37.54 280.982a8.468 8.468 0 00-5.556 5.973c3.353 1.772 6.332 2.491 8.008 1.839 1.768-.479 3.765-2.907 5.427-6.437a8.453 8.453 0 00-7.88-1.375z" fill="#30242A"/><path d="M16.062 309.074a4.113 4.113 0 013.377-7.472 8.464 8.464 0 00-4.31-6.706l-6.931 15.39a8.47 8.47 0 007.864-1.212z" fill="#F5EBDD"/><path d="M14.3 303.791a4.115 4.115 0 001.762 5.269 8.445 8.445 0 003.377-7.472 4.116 4.116 0 00-5.14 2.203z" fill="#4856DF"/><path d="M330.842 311.522H209.021l2.06-8.171h53.474l20.395-79.761a50.499 50.499 0 0148.919-37.983c27.441 0 47.52 25.865 40.714 52.449l-12.603 49.282a32.148 32.148 0 01-31.138 24.184z" fill="#FFB494"/><path d="M209.965 387.005v8.651h77.639v-8.651h-77.639z" fill="#A15842"/><path d="M300.393 426.919l-20.194-120.201h-62.834l-20.194 120.201a3.993 3.993 0 002.259 4.277 3.99 3.99 0 005.578-2.773l26.449-121.705h34.669l26.44 121.705a3.992 3.992 0 003.899 3.142 3.989 3.989 0 003.928-4.646z" fill="#A15842"/><path d="M274.283 387.005v8.651h77.639v-8.651h-77.639z" fill="#FFBE21"/><path d="M364.711 426.919l-20.213-120.201h-62.81l-20.194 120.201a3.993 3.993 0 002.259 4.277 3.985 3.985 0 005.573-2.773l26.44-121.705h34.673l26.44 121.705a3.99 3.99 0 007.832-1.504z" fill="#FFBE21"/><path d="M301.25 287.338l7.702-30.123h-51.045a45.073 45.073 0 00-43.669 33.902l-5.217 20.405h61.085a32.15 32.15 0 0031.144-24.184z" fill="#FFB494"/><path d="M212.341 302.551h64.806m-12.362-.302l11.357-44.402m92.784-1.662h-30.655m36.403-21.554h-39.277" stroke="#A15842" stroke-width="4" stroke-linecap="round" stroke-linejoin="round"/><path d="M231.606 224.898s-38.429 10.466-54.753 18.632c-26.914 13.455-26.823 22.335-43.233 72.049-15.151 45.944-16.817 68.212-37.716 69.094-15.955.67-21.185 5.891-23.772 13.047l63.135 29.956a3.14 3.14 0 004.096-1.332 3.137 3.137 0 00-1.183-4.215l-1.327-.766c5.867-7.108 17.186-22.254 28.471-45.259l7.184 3.353s11.606-15.084 13.446-32.193c2.394-22.095.958-36.987 11.05-45.633l117.686-76.752-83.084.019z" fill="#FF7235"/><path d="M89.701 388.222c1.25-2.601 8.196-18.446 12.191-16.53 5.197 2.491-8.291 18.398-8.291 18.398l-3.9-1.868z" fill="#30242A"/><path d="M72.128 397.945l63.135 29.951a3.133 3.133 0 002.912-5.542l-1.327-.766.134-.163-43.396-20.486a26.906 26.906 0 001.36-5.566c6.495 1.126 19.639 2.338 19.706-3.08.072-5.048-14.283-3.022-19.528-1.595a21.393 21.393 0 00-1.121-5.695c-14.47.996-19.394 6.074-21.875 12.942z" fill="#30242A"/><path d="M176.853 243.53c-3.023 1.509-5.7 2.96-8.1 4.417l-3.683 11.797 14.178-9.987 13.071 10.423-4.818-14.288 14.805-6.783-11.443-1.437a142.77 142.77 0 00-14.01 5.858zm41.772-6.14l-.958 6.241 6.246-2.4-5.288-3.841zm-36.024 31.22l-9.125 12.008-12.971-6.241 7.683 12.966-12.008 10.087 15.37-1.92 5.288 17.775 5.284-17.775 16.812-4.805-16.333-6.725v-15.37zm-51.3 91.687l1.121-3.199 15.328-.815-12.454-8.478 5.547-13.282-12.545 8.363-2.395-2.586c-1.916 6.308-3.611 11.926-5.269 16.865h.077c.182-.542.364-1.088.546-1.643l10.044 4.775z" fill="#FFB494"/><path d="M131.301 360.297l-10.058-4.756c-.182.555-.364 1.101-.546 1.643-6.079 18.105-11.616 27.158-24.783 27.714-.647 0-1.27.062-1.882.105a21.393 21.393 0 011.12 5.695c5.269-1.437 19.6-3.453 19.529 1.595-.077 5.418-13.211 4.206-19.706 3.08a26.91 26.91 0 01-1.374 5.566l43.396 20.486c5.901-7.185 17.123-22.254 28.322-45.068l-34.018-16.06z" fill="#EAA58B"/><path d="M169.63 323.851l-1.437 12.971-13.45-.479 11.529 8.651-4.311 15.37 11.539-10.092 10.37 6.917a53.47 53.47 0 00.79-2.783l-3.975-9.901 6.159-6.749c.101-1.255.197-2.49.288-3.693l-10.758 1.796-6.744-12.008zm-29.961-26.962c-1.212 3.746-2.514 7.812-3.951 12.233l12.779.781-8.828-13.014z" fill="#FFB494"/><path d="M184.794 413.905c.202-2.874.829-20.165 5.245-19.854 5.748.403-.934 20.156-.934 20.156l-4.311-.302z" fill="#30242A"/><path d="M291.172 225.602s-48.037 8.909-74.458 19.954c-26.675 11.156-26.416 30.967-21.617 84.781 4.311 48.176 12.013 71.57-3.831 78.773-14.533 6.61-19.581 14.897-18.892 22.474h71.537a3.078 3.078 0 002.171-.899 3.059 3.059 0 00.899-2.171 3.07 3.07 0 00-3.07-3.07h-1.207c2.256-7.381 5.527-21.789 5.977-45.633h8.871s4.56-21.075-.479-39.871c-5.269-19.691-10.087-23.053-12.966-36.503h43.046c32.873 0 57.479-30.406 50.327-62.489-2.232-10.025-5.47-15.327-5.47-15.327l-40.838-.019z" fill="#FF7235"/><path d="M261.389 253.718l-8.818 11.094-13.733-4.718 8.138 13.32-10.566 14.413 13.929-5.767 7.764 14.312.881-15.754 13.45-2.879-11.524-7.208.479-16.813zm-19.188 85.633l8.143 13.321-10.567 14.412 13.929-5.748 5.163 9.518c.757-7.396 1.131-18.336-1.283-28.84l-1.648 2.074-13.737-4.737zm-35.915 40.441l-.617-7.425 15.595-6.016-14.762-3.06 1.629-16.204-9.58 12.535-.288-.12c.92 7.736 1.725 14.494 2.175 20.342v-.052h5.848z" fill="#FFB494"/><path d="M243.911 425.425h-1.207c2.256-7.381 5.527-21.789 5.977-45.633h-48.257v.043c.038.479.072.958.105 1.437v.134c1.001 14.968-.632 23.724-9.283 27.657-14.532 6.61-19.581 14.896-18.891 22.473h71.556a3.07 3.07 0 100-6.14v.029z" fill="#EAA58B"/><path d="M307.961 226.843l-22.067 1.954 2.299 8.871-14.116 7.529 17.584 2.352 5.949 13.177 6.116-13.646 17.886-2.826-15.534-7.999 1.883-9.412zm-105.176 62.421l5.269-16.813 15.371 2.395-12.009-10.566 8.622-10.088-15.85 5.748-2.533-4.344c-4.076 4.617-6.538 10.351-7.856 17.722l2.702.086 6.284 15.86zm41.126-52.741a354.02 354.02 0 00-9.623 2.816l12.698 8.622-3.075-11.438zm-20.951 77.72l-6.725-13.929-3.362 15.371-12.488-.958 11.525 10.087-7.204 16.812 12.506-11.658 10.365 11.951-3.175-18.068 10.566-13.929-12.008 4.321z" fill="#FFB494"/><path d="M194.446 419.806c6.351-1.753 18.747-6.265 16.506-11.194-2.089-4.598-14.207 3.353-18.341 6.893a21.16 21.16 0 00-3.951-5.163c-12.54 6.384-16.942 14.115-16.286 21.223h71.537a3.07 3.07 0 100-6.14h-48.33a27.19 27.19 0 00-1.135-5.619z" fill="#30242A"/><path d="M243.911 304.495l-12.368-.172m21.564-69.898c-12.813 3.266-26.507 7.276-36.882 11.606-22.129 9.268-25.716 24.481-23.566 60.155" stroke="#A15842" stroke-width="4" stroke-miterlimit="10" stroke-linecap="round"/><path d="M415.713 231.623h-11.764v199.942h11.764V231.623z" fill="#FFBE21"/><path d="M415.713 234.372h-11.764" stroke="#A15842" stroke-width="4" stroke-miterlimit="10"/><path d="M245.056 81.274c-6.706-.958-22.067 6.251-22.575 20.501-.508 14.25 12.214 18.829 14.25 19.849l29.52-4.584 2.035-32.571-23.23-3.195zm52.151-35.387c12.672 0 22.944-10.272 22.944-22.944C320.151 10.273 309.879 0 297.207 0c-12.671 0-22.943 10.272-22.943 22.943 0 12.672 10.272 22.944 22.943 22.944z" fill="#A15842"/><path d="M282.325 38.721c1.399.647-10.379-27.302-16.391-22.943-5.656 4.114 9.288 19.667 16.391 22.943z" fill="#30242A"/><path d="M282.977 40.431c1.283 1.533 31.335-8.98 27.177-15.045-3.975-5.834-28.461 13.508-27.177 15.045z" fill="#30242A"/><path d="M322.871 117.299s20.175-16.813 7.185-35.546c-8.267-11.941-30.746-7.185-30.746-7.185.546-6.557 2.328-25.448-11.879-35.828-14.206-10.38-32.231-4.914-38.798 3.276-6.566 8.191-4.914 23.495-7.098 34.42-2.184 10.926-.728 18.355 6.006 21.852 6.127 3.18 13.335 1.26 13.335 1.26l-.766 11.529s-13.891.522-22.402 3.601c-20.51 7.425-56.544 58.341-56.544 58.341-22.575-.958-43.712-1.916-43.712-1.916l11.05 32.667s27.857 9.124 48.032 3.832c20.467-5.36 39.871-34.104 39.871-34.104l6.706 19.212-11.529 32.183h100.395l-16.812-29.783c2.907-26.412 7.706-77.811 7.706-77.811z" fill="#EAA58B"/><path d="M290.612 109.879l-26.344 47.769-10.778-46.092c-4.737.479-11.05 1.408-15.734 3.103-20.558 7.444-56.592 58.36-56.592 58.36-22.575-.958-43.712-1.916-43.712-1.916l11.05 32.667s27.857 9.124 48.032 3.832c20.467-5.36 39.871-34.104 39.871-34.104l6.706 19.212-11.529 32.183h100.395l-16.812-29.779c2.873-26.42 7.663-77.82 7.663-77.82a46.567 46.567 0 00-14.408-5.748c-5.733-1.293-12.037-.522-17.808-1.667z" fill="#3546AB"/><path d="M154.183 221.535h83.19l-18.916-59.739a8.684 8.684 0 00-8.281-6.068H139.87a8.673 8.673 0 00-7.012 3.554 8.683 8.683 0 00-1.269 7.759l15.634 49.403a7.297 7.297 0 006.96 5.091z" fill="#30242A"/><path d="M166.579 182.752c2.208-3.018 12.223 4.953 12.961 5.609.383-.656 5.599-8.622 9.422-5.609 3.319 2.615-3.976 14.298-5.916 17.277a.878.878 0 01-.644.287.874.874 0 01-.644-.287c-3.54-2.979-17.095-14.662-15.179-17.277z" fill="#A15842"/><path d="M178.715 184.772c.836-.26.867-2.545.07-5.104-.796-2.558-2.12-4.421-2.956-4.161-.836.26-.868 2.546-.071 5.104.797 2.559 2.121 4.422 2.957 4.161z" fill="#A15842"/><path d="M285.678 214.81a5.168 5.168 0 01-4.924 6.706H154.182c-1.55 0-3.06-.493-4.312-1.408a7.304 7.304 0 01-2.647-3.684l-.517-1.633 138.972.019z" fill="#30242A"/><path d="M435.984 221.535H65.149v12.008h370.835v-12.008z" fill="#FFBE21"/><path d="M361.976 287.338l7.702-30.123h-44.929a45.074 45.074 0 00-43.664 33.902l-5.221 20.405h54.963a32.15 32.15 0 0031.149-24.184z" fill="#FFB494"/><path d="M276.927 303.624l-1.777 7.51" stroke="#A15842" stroke-width="4" stroke-linecap="round" stroke-linejoin="round"/><path d="M133.447 172.832c-5.59 2.793-8.382 7.448-8.382 10.71 0 4.761 4.847 5.657 4.847 5.657s-3.616 5.685 2.673 8.353c0 0 0 5.854 5.858 5.854 0 0-.776 4.564 5.336 4.995 6.112.432 12.401-2.758 12.933-4.823.608-2.438-1.035-4.478-5.47-5.125 0 0 5.987-2.797 5.038-6.327-.948-3.531-4.995-3.449-4.995-3.449s3.875-2.323 1.805-5.748c-2.069-3.425-6.025-2.237-6.025-2.237s1.034-2.395-.776-4.22c-2.156-2.155-11.424.566-11.424.566l-1.418-4.206z" fill="#EAA58A"/><path d="M138.486 203.631a69.935 69.935 0 0014.59-5.269m-20.505-.838a74.73 74.73 0 0019.82-8.684m-22.958 1.039a61.867 61.867 0 0018.125-8.78" stroke="#A15842" stroke-width="4" stroke-miterlimit="10" stroke-linecap="round"/><path d="M330.08 81.753c-8.267-11.941-30.746-7.185-30.746-7.185.546-6.557 2.328-25.448-11.879-35.828-14.206-10.38-32.231-4.914-38.798 3.276-2.672 3.353-3.98 7.865-4.741 12.79 4.358.732 10.753-.767 10.753-.767 8.741 9.834 16.573 11.395 16.573 11.395 6.116-6.117 16.845-5.915 18.589 3.353 1.811 9.623-13.56 13.948-13.56 13.948s-1.437 17.291 6.227 23.537a17.987 17.987 0 008.09 3.626c5.748 1.145 12.075.374 17.852 1.658a46.584 46.584 0 0114.407 5.747 36.858 36.858 0 004.79-5.106c5.039-6.389 11.065-17.99 2.443-30.444z" fill="#A15842"/><path d="M263.789 50.533c-2.874 2.395-6.227 3.832-10.088 4.79" stroke="#EAA58B" stroke-width="4" stroke-miterlimit="10" stroke-linecap="round"/><path d="M260.718 100.625a35.658 35.658 0 006.423-2.874m9.719-24.677l4.368-2.73m-29.433 15.552c.905.56 4.311.997 5.661-1.604" stroke="#A15842" stroke-width="4" stroke-miterlimit="10" stroke-linecap="round"/><path d="M260.694 73.606a1.639 1.639 0 100-3.278 1.639 1.639 0 000 3.278zm-13.579-2.17a1.638 1.638 0 100-3.276 1.638 1.638 0 000 3.276z" fill="#30242A"/><path d="M251.728 76.125c-.326 1.03-.609 2.15-.422 2.524.257.474.647.862 1.121 1.116" stroke="#A15842" stroke-width="4" stroke-miterlimit="10" stroke-linecap="round"/><path d="M278.915 89.125a5.738 5.738 0 100-11.477 5.738 5.738 0 000 11.477z" fill="#F5EBDD"/><path d="M251.31 70.719c.993-5.103-1.926-9.964-6.52-10.857-4.593-.894-9.122 2.518-10.114 7.62-.993 5.103 1.926 9.963 6.519 10.857 4.594.894 9.122-2.518 10.115-7.62zm20.812 2.551c.993-5.102-1.926-9.963-6.52-10.856-4.593-.894-9.122 2.518-10.114 7.62-.993 5.103 1.926 9.963 6.519 10.857 4.594.894 9.122-2.518 10.115-7.62zm-20.418-3.324l3.31.355m45.417 4.899l-.953 6.132" stroke="#30242A" stroke-width="4" stroke-miterlimit="10" stroke-linecap="round"/><path d="M231.127 161.011l4.636 13.493m19.859 17.248h-12.19m21.798-34.583l3.842 18.733v17.292" stroke="#30242A" stroke-width="4" stroke-linecap="round" stroke-linejoin="round"/><path d="M239.681 114.243l7.295 16.505-8.645-.957 30.741 46.111m41.686-63.623l-12.382 17.511 11.529-.962-42.275 37.466m49.565 4.704l-9.21-12.866m19.868 60.285c-5.015-1.672-14.015-4.9-19.442-8.143" stroke="#30242A" stroke-width="4" stroke-linecap="round" stroke-linejoin="round"/><path d="M189.522 99.231a9.422 9.422 0 100-18.842 9.422 9.422 0 000 18.842z" fill="#FFB494"/><path d="M161.364 52.315l-5.486-6.615a2.395 2.395 0 00-3.372-.314l-.118.098a2.395 2.395 0 00-.315 3.372l5.486 6.614a2.395 2.395 0 003.372.315l.118-.098a2.395 2.395 0 00.315-3.372z" fill="#3546AB"/><path d="M171.23 60.352l-5.518-6.658-99.184 82.242a4.24 4.24 0 00-.555 5.968l.11.134a4.242 4.242 0 002.866 1.513 4.232 4.232 0 003.097-.957l31.01-25.722v90.256h8.655v-97.44l59.519-49.336z" fill="#3EC1F3"/><path d="M155.246 62.268l2.764 3.353a11.863 11.863 0 012.155 3.937" stroke="#3546AB" stroke-width="4" stroke-miterlimit="10"/><path d="M107.381 118.87c6.235 0 11.29-5.055 11.29-11.29 0-6.235-5.055-11.29-11.29-11.29-6.235 0-11.29 5.055-11.29 11.29 0 6.235 5.055 11.29 11.29 11.29z" fill="#3546AB"/><path d="M107.381 111.92a4.339 4.339 0 004.339-4.34 4.339 4.339 0 10-8.679 0 4.34 4.34 0 004.34 4.34z" fill="#3EC1F3"/><path d="M197.258 84.46l-14.442 11.936" stroke="#A15842" stroke-width="4" stroke-miterlimit="10"/><path d="M178.548 59.145a11.889 11.889 0 01-7.769-4.225l-3.832-4.631a7.997 7.997 0 00-13.221 1.37 7.999 7.999 0 00-.568 6.09 7.991 7.991 0 001.484 2.742l3.832 4.646a11.882 11.882 0 012.697 8.392l-.958 14.006A32.053 32.053 0 00165.175 107l1.226 1.915 45.949-38.112-1.647-1.547a32.034 32.034 0 00-18.202-8.483l-13.953-1.629zm-66.837 147.982h-8.655l-12.794 3.487a11.319 11.319 0 00-8.34 10.921h50.917a11.321 11.321 0 00-8.344-10.921l-12.784-3.487z" fill="#3EC1F3"/><path d="M203.633 64.026l-42.05 34.755m-58.738 107.355h8.866m-28.107 9.412h47.266" stroke="#3546AB" stroke-width="4" stroke-miterlimit="10" stroke-linecap="round"/><path d="M356.022 345.104c.958-8.143.479-26.421-10.088-40.35-10.566-13.929 3.832-8.143 8.143-4.311 6.898 6.131 12.971 12.008 18.254 31.704l-16.309 12.957z" fill="#30242A"/><path d="M483.609 431.565H540v-1.844a9.807 9.807 0 00-9.805-9.8h-46.878l.292 11.644z" fill="#A15842"/><path d="M346.049 377.727l11.894 53.838h22.1v-3.353a8.166 8.166 0 00-8.143-8.166s11.046-8.282 17.771-16.449c0 0 11.529 14.049 27.862 11.645l1.183 5.747a13.254 13.254 0 0012.957 10.576h53.565c23.757 0 35.444-3.626 36.115-17.152a3.834 3.834 0 00-2.329-3.68 3.82 3.82 0 00-1.503-.305h-14.954a4.121 4.121 0 01-3.214-1.538l-6.365-7.898a15.691 15.691 0 00-16.08-5.351l-12.803 3.272s-22.685-32.6-43.233-55.241c-19.639-21.617-56.578-23.95-71.13 4.205a44.26 44.26 0 00-3.693 29.85z" fill="#A15842"/><path d="M479.954 431.565v-1.844a9.794 9.794 0 00-6.053-9.055 9.812 9.812 0 00-3.751-.745h-6.529" stroke="#30242A" stroke-width="4" stroke-miterlimit="10"/><path d="M390.562 403.981c3.352-3.99 14.795-18.681 13.976-33.05-.876-15.376-10.087-23.538-10.087-23.538m20.175 47.549s.613 11.366 1.844 19.854m-47.956 11.85v4.44m5.283-4.44v4.44m95.591-4.44v4.44m5.283-4.44v4.44" stroke="#30242A" stroke-width="4" stroke-miterlimit="10" stroke-linecap="round"/><path d="M488.84 413.675a2.16 2.16 0 100-4.32 2.16 2.16 0 000 4.32zm-11.788-18.077v-.057l-12.966 3.353 12.803-3.272.163-.024z" fill="#30242A"/><path d="M445.142 420.137c-3.755 1.916-9.063 5.666-8.622 11.347h20.855l4.383-6.912a7.939 7.939 0 016.706-3.693h1.393l7.147-25.137-.105-.11-12.804 3.271-12.257 15.701a20.196 20.196 0 01-6.696 5.533z" fill="#30242A"/><path d="M414.683 355.407s-5.8 20.079 12.933 27.661c9.498 3.832 17.387.925 22.862-2.874-8.272-11.016-19.217-25.041-29.611-36.498a50.353 50.353 0 00-8.727-7.621c-2.836 3.861-5.94 13.412 2.543 19.332zm-47.85 14.561a7.927 7.927 0 100-15.854 7.928 7.928 0 100 15.854z" fill="#EAA58B"/><path d="M517.54 410.428h-2.874a5.537 5.537 0 005.418 6.61c.337 0 .674-.032 1.006-.096.146-.836.24-1.681.282-2.529a3.834 3.834 0 00-2.329-3.68 3.82 3.82 0 00-1.503-.305z" fill="#30242A"/><path d="M528.95 426.646v4.33m5.283-4.33v4.33" stroke="#30242A" stroke-width="4" stroke-miterlimit="10" stroke-linecap="round"/><path d="M499.962 430.991c11.744-1.184 18.747-4.364 21.291-11.132" stroke="#30242A" stroke-width="4" stroke-linecap="round" stroke-linejoin="round"/><path d="M308.463 178.982a113.668 113.668 0 00-17.775-.196c-8.468.695-19.854 2.912-24.428 5.125-4.574 2.213-22.091 10.025-17.373 12.645 4.311 2.395 13.354-1.207 13.354-1.207s-9.024 8.296-10.576 11.769c-1.551 3.473 3.578 5.422 3.578 5.422 1.351 5.93 7.396 3.382 7.396 3.382 3.808 8.099 24.38-9.451 24.38-9.451 4.895.509 9.837.301 14.672-.618 0 0 2.605 1.461 6.787 3.492l-.015-30.363z" fill="#EAA58A"/><path d="M359.859 219.615c38.429-18.255-17.277-86.457-36.988-102.316l-11.045 44.674 13.929 19.213c-6.102-1.054-11.936-1.777-17.291-2.204v30.363c12.194 5.93 37.82 16.736 51.395 10.27z" fill="#3546AB"/><path d="M260.402 195.852c3.411-2.821 9.072-7.381 13.297-10.13m4.656 6.739c-9.815 6.356-18.757 14.848-23.183 19.293m27.537-12.104c-6.706 4.603-14.49 11.582-19.572 16.372" stroke="#A15842" stroke-width="4" stroke-miterlimit="10" stroke-linecap="round"/><path d="M398 197.069a2.741 2.741 0 012.74 2.739v.408a2.743 2.743 0 01-2.74 2.739h-14.116v-5.886H398zm0-3.832h-17.43a.517.517 0 00-.517.522v12.525a.516.516 0 00.517.518H398a6.574 6.574 0 006.572-6.586v-.422a6.575 6.575 0 00-6.572-6.572v.015z" fill="#3EC1F3"/><path d="M376.925 191.173c-14.274 0-20.87-11.376-20.87-11.376l9.58 41.738h22.551l9.579-41.738a24.492 24.492 0 01-20.84 11.376z" fill="#3EC1F3"/><path d="M376.925 191.173a24.507 24.507 0 0020.869-11.376h-41.739s6.596 11.376 20.87 11.376z" fill="#30242A"/></svg>