<svg width="112" height="40" fill="none" xmlns="http://www.w3.org/2000/svg"><circle cx="20" cy="20" r="20" fill="#FF7235"/><path d="M18.176 26h-3.792l4.344-6.096-4.08-6.072h3.888l1.968 3.624 2.184-3.624h3.84l-4.368 6.096L26.216 26H22.4l-2.04-3.648L18.176 26z" fill="#fff"/><path d="M55.841 29.462h-2.254V13.339h2.254v1.794c.797-1.303 1.993-1.955 3.588-1.955 1.533 0 2.745.56 3.634 1.679.89 1.104 1.334 2.515 1.334 4.232 0 1.763-.46 3.22-1.38 4.37-.905 1.135-2.116 1.702-3.634 1.702-1.549 0-2.73-.644-3.542-1.932v6.233zm0-10.327c0 1.35.314 2.361.943 3.036.644.675 1.372 1.012 2.185 1.012.905 0 1.648-.353 2.231-1.058.583-.72.874-1.725.874-3.013 0-1.211-.284-2.17-.851-2.875-.567-.72-1.288-1.081-2.162-1.081-.874 0-1.633.322-2.277.966-.629.629-.943 1.633-.943 3.013zm19.782 5.244c-.859.49-1.994.736-3.404.736-1.81 0-3.25-.544-4.324-1.633-1.073-1.089-1.61-2.515-1.61-4.278 0-1.87.49-3.335 1.472-4.393.981-1.073 2.23-1.61 3.749-1.61 1.487 0 2.668.468 3.542 1.403.874.92 1.31 2.254 1.31 4.002 0 .475-.045.974-.137 1.495h-7.66c.154 1.012.583 1.786 1.289 2.323.705.537 1.595.805 2.668.805 1.242 0 2.277-.291 3.105-.874v2.024zm-4.071-9.315c-.767 0-1.426.284-1.978.851-.552.552-.897 1.357-1.035 2.415h5.635v-.414c-.03-.874-.269-1.564-.713-2.07-.445-.521-1.081-.782-1.91-.782zM88.65 25h-2.254v-7.36c0-.813-.207-1.434-.621-1.863-.399-.43-.936-.644-1.61-.644-.798 0-1.48.314-2.047.943-.568.613-.851 1.48-.851 2.599V25h-2.254V13.339h2.254v2.001c.69-1.441 1.901-2.162 3.634-2.162 1.15 0 2.062.353 2.737 1.058.674.705 1.012 1.664 1.012 2.875V25zm10.322-3.22c0 1.043-.368 1.863-1.104 2.461-.736.583-1.733.874-2.99.874-1.38 0-2.53-.23-3.45-.69v-2.139c1.073.66 2.185.989 3.335.989.598 0 1.058-.123 1.38-.368.337-.245.506-.567.506-.966 0-.337-.13-.636-.391-.897a2.552 2.552 0 00-.805-.598c-.26-.138-.713-.345-1.357-.621-1.825-.751-2.737-1.855-2.737-3.312 0-1.027.383-1.832 1.15-2.415.766-.583 1.725-.874 2.875-.874 1.257 0 2.238.169 2.944.506v2.047c-.752-.445-1.718-.667-2.898-.667-.537 0-.966.123-1.288.368-.307.245-.46.567-.46.966 0 .107.007.215.023.322.03.092.076.192.138.299.061.092.115.176.16.253.062.061.154.13.277.207.122.077.214.146.276.207.076.046.191.107.345.184.168.077.291.138.368.184.076.03.207.092.39.184.2.077.338.13.415.161.904.399 1.61.851 2.116 1.357.521.49.782 1.15.782 1.978zm11.038 2.599c-.858.49-1.993.736-3.404.736-1.809 0-3.25-.544-4.324-1.633-1.073-1.089-1.61-2.515-1.61-4.278 0-1.87.491-3.335 1.472-4.393.982-1.073 2.231-1.61 3.749-1.61 1.488 0 2.668.468 3.542 1.403.874.92 1.311 2.254 1.311 4.002 0 .475-.046.974-.138 1.495h-7.659c.154 1.012.583 1.786 1.288 2.323.706.537 1.595.805 2.668.805 1.242 0 2.277-.291 3.105-.874v2.024zm-4.071-9.315c-.766 0-1.426.284-1.978.851-.552.552-.897 1.357-1.035 2.415h5.635v-.414c-.03-.874-.268-1.564-.713-2.07-.444-.521-1.081-.782-1.909-.782z" fill="#292830"/></svg>