<svg width="539" height="478" fill="none" xmlns="http://www.w3.org/2000/svg"><path d="M291.338 15.042h5.997a85.459 85.459 0 0185.44 85.46v163.036H205.852V100.502a85.449 85.449 0 0125.04-60.439 85.45 85.45 0 0160.446-25.021z" fill="#FFB494"/><path d="M326.436 165.397v100.679h-78.507V165.397h78.507zm2.08-2.08h-82.667v104.84h82.667v-104.84z" fill="#CA7358"/><path d="M328.516 163.311h-82.667v21.674h82.667v-21.674z" fill="#CA7358"/><path d="M245.407 110.957v155.624h-47.253V110.957h47.253zm2.08-2.081h-51.413v159.785h51.413V108.876zm143.844-29.423v186.623h-62.373V79.453h62.373zm2.08-2.08h-66.533v190.784h66.533V77.373z" fill="#CA7358"/><path d="M353.924 102.827h.598a8.52 8.52 0 018.52 8.52v19.202h-17.643v-19.202a8.528 8.528 0 012.497-6.026 8.518 8.518 0 016.028-2.494z" fill="#CA7358"/><path d="M343.386 117.947h21.674" stroke="#FFB494" stroke-width="4" stroke-linecap="round" stroke-linejoin="round"/><path d="M353.924 152.561h.598a8.52 8.52 0 018.52 8.519v19.203h-17.643V161.08a8.527 8.527 0 012.497-6.026 8.531 8.531 0 016.028-2.493z" fill="#F5EBDD"/><path d="M343.386 167.68h21.674" stroke="#FFB494" stroke-width="4" stroke-linecap="round" stroke-linejoin="round"/><path d="M353.924 202.294h.598c2.26 0 4.427.898 6.024 2.496a8.516 8.516 0 012.496 6.024v19.202h-17.643v-19.202a8.52 8.52 0 018.52-8.52h.005z" fill="#F5EBDD"/><path d="M343.386 217.414h21.674" stroke="#FFB494" stroke-width="4" stroke-linecap="round" stroke-linejoin="round"/><path d="M353.924 252.028h.598a8.52 8.52 0 018.52 8.519v17.643h-17.643v-17.643a8.527 8.527 0 012.497-6.026 8.531 8.531 0 016.028-2.493z" fill="#30242A"/><path d="M393.411 77.373h-66.533v8.316h66.533v-8.316zm-145.924 27.472h-51.413v8.317h51.413v-8.317z" fill="#CA7358"/><path d="M278.361 204.645h-17.642v22.682h17.642v-22.682z" fill="#F5EBDD"/><path d="M258.701 214.725h21.678m-10.839 13.611v-13.611" stroke="#FFB494" stroke-width="4" stroke-linecap="round" stroke-linejoin="round"/><path d="M278.361 245.61h-17.642v22.682h17.642V245.61z" fill="#CA7358"/><path d="M258.701 255.689h21.678m-10.839 13.612v-13.612" stroke="#FFB494" stroke-width="4" stroke-linecap="round" stroke-linejoin="round"/><path d="M311.628 204.645h-17.642v22.682h17.642v-22.682z" fill="#30242A"/><path d="M291.973 214.725h21.673m-10.839 13.611v-13.611" stroke="#FFB494" stroke-width="4" stroke-linecap="round" stroke-linejoin="round"/><path d="M311.628 245.61h-17.642v22.682h17.642V245.61z" fill="#F5EBDD"/><path d="M291.973 255.689h21.673m-10.839 13.612v-13.612" stroke="#FFB494" stroke-width="4" stroke-linecap="round" stroke-linejoin="round"/><path d="M257.567 76.618c7.239 0 13.107-5.868 13.107-13.107 0-7.238-5.868-13.107-13.107-13.107-7.239 0-13.107 5.869-13.107 13.107 0 7.24 5.868 13.107 13.107 13.107zm147.89 187.003H183.17v15.12h222.287v-15.12z" fill="#F5EBDD"/><path d="M297.824 0h-7.006c-55.268 0-100.07 44.803-100.07 100.07v178.671h207.167V100.07C397.9 44.803 353.092 0 297.824 0zm-11.068 263.621h-80.904V137.607h80.904v126.014zm0-141.133h-80.904v-21.903a85.466 85.466 0 0180.904-85.34v107.243zm96.019 141.133h-80.899V137.607h80.899v126.014zm0-141.133h-80.899V15.245a85.463 85.463 0 0180.899 85.34v21.903z" fill="#F5EBDD"/><path d="M20.16 477.842c11.134 0 20.16-9.026 20.16-20.16s-9.026-20.16-20.16-20.16S0 446.548 0 457.682s9.026 20.16 20.16 20.16z" fill="#FFB494"/><path d="M469.764 293.346a3.966 3.966 0 01-.333 1.617c-1.56 3.553-8.228 4.078-14.859 1.171-5.555-2.429-9.331-6.497-9.492-9.841v44.356h24.7v-37.303h-.016z" fill="#FFBE21"/><path d="M460.267 283.282c-6.632-2.908-13.289-2.382-14.86 1.17a4.044 4.044 0 00-.327 1.852c.161 3.344 3.937 7.411 9.492 9.84 6.631 2.908 13.289 2.382 14.859-1.17.223-.51.337-1.061.333-1.618.016-3.386-3.807-7.588-9.497-10.074z" fill="#A15842"/><path d="M488.702 307.977c-.161 3.344-3.938 7.411-9.492 9.846-6.637 2.902-13.289 2.382-14.865-1.176a4.03 4.03 0 01-.333-1.612v15.603h24.695v-22.661h-.005z" fill="#FFBE21"/><path d="M488.374 306.125c-1.56-3.552-8.228-4.078-14.865-1.17-5.685 2.491-9.508 6.689-9.497 10.08a4.03 4.03 0 00.333 1.612c1.56 3.558 8.228 4.078 14.865 1.176 5.555-2.435 9.331-6.502 9.492-9.846a4.057 4.057 0 00-.328-1.852z" fill="#A15842"/><path d="M464.735 330.659v-15.12" stroke="#A15842" stroke-width="4" stroke-miterlimit="10" stroke-linecap="round"/><path d="M457.427 280v8.571m18.932 13.107v9.071" stroke="#30242A" stroke-width="4" stroke-linecap="round" stroke-linejoin="round"/><path d="M351.672 477.987a3.976 3.976 0 01-3.94-3.373 3.987 3.987 0 01.153-1.859l12.483-38.041a3.994 3.994 0 013.792-2.741h8.748a3.978 3.978 0 013.439 1.967 3.984 3.984 0 01.041 3.962l-21.252 38.041a3.976 3.976 0 01-3.464 2.044zm167.228 0a3.968 3.968 0 001.813-.435 3.986 3.986 0 001.973-4.797l-12.483-38.041a3.99 3.99 0 00-3.786-2.741h-8.754a3.98 3.98 0 00-1.978.529 3.977 3.977 0 00-2.004 3.414 3.986 3.986 0 00.503 1.986l21.252 38.041a3.988 3.988 0 003.464 2.044z" fill="#30242A"/><path d="M538.201 330.659H333.052v117.442h205.149V330.659z" fill="#A15842"/><path d="M523.076 345.779H348.171v87.203h174.905v-87.203z" fill="#FFB494"/><path d="M435.437 344.271v90.224" stroke="#A15842" stroke-width="4" stroke-miterlimit="10"/><path d="M456.049 394.665a5.285 5.285 0 10-.001-10.57 5.285 5.285 0 00.001 10.57zm-40.85 0a5.285 5.285 0 10-.001-10.57 5.285 5.285 0 00.001 10.57z" fill="#30242A"/><path d="M81.097 429.096v8.567h74.095v-8.567H81.097z" fill="#A15842"/><path d="M167.4 473.556l-18.355-110.135h11.224a4.538 4.538 0 004.535-4.535 4.536 4.536 0 00-4.535-4.536h-84.16a4.534 4.534 0 00-4.536 4.536 4.536 4.536 0 004.536 4.535h11.135L68.89 473.556a3.808 3.808 0 006.144 3.59 3.8 3.8 0 001.33-2.155l24.321-111.57h34.921l24.315 111.57a3.81 3.81 0 007.394.202 3.82 3.82 0 00.086-1.637z" fill="#FFBE21"/><path d="M160.269 363.421a4.538 4.538 0 004.535-4.535 4.536 4.536 0 00-4.535-4.536h-84.16a4.534 4.534 0 00-4.536 4.536 4.536 4.536 0 004.536 4.535h11.135v.141h13.43l.031-.141h34.921l.031.141h13.429v-.141h11.183z" fill="#A15842"/><path d="M165.257 428.951h53.572c.666-11.375 3.042-26.464 5.014-46.847 1.752-18.074 3.261-33.246 3.162-45.77-.166-20.878-53.572 4.389-53.572 4.389 0 4.562.921 8.941.947 13.185.062 11.027-5.524 20.41-9.513 33.709-6.049 20.165-1.009 41.334-1.009 41.334h1.399z" fill="#4856DF"/><path d="M221.684 472.297h-46.899a2.869 2.869 0 00-1.962 3.168 2.864 2.864 0 002.826 2.429l69.014.093c.608-6.709-3.204-11.759-13.96-19.244-6.137 5.321-9.019 13.554-9.019 13.554z" fill="#3EC1F3"/><path d="M228.285 457.115a20.324 20.324 0 01-5.665-5.482c-3.64-5.342-4.41-12.535-3.812-22.682h-46.426c.09 7.587.637 15.161 1.639 22.682 1.186 8.514 2.788 14.371 4.072 20.529h-2.439c-.295 0-.588.045-.869.135h46.899s2.882-8.233 9.019-13.523c-.77-.544-1.576-1.097-2.418-1.659z" fill="#A15842"/><path d="M219.37 419.838a61.122 61.122 0 01-5.8-18.167c-3.396-23.598-1.383-35.696-10.959-46.291h-28.018" stroke="#30242A" stroke-width="4" stroke-linecap="round" stroke-linejoin="round"/><path d="M236.84 430.964l.052.124 41.36-19.369c-3.219-9.632-6.585-22.448-12.113-39.222-5.181-15.697-8.608-27.425-11.854-36.502a22.416 22.416 0 01-30.032-3.489 22.42 22.42 0 01.744-30.224c-22.079-9.976-100.497-16.483-100.497-16.483l-44.36-6.553c-2.34 3.869-4.333 10.001-5.415 17.163h15.5v16.577a12.665 12.665 0 01-12.655 12.633h-1.503c4.234 15.604 15.125 28.747 37.355 28.747h89.72c9.575 10.584 7.563 22.682 10.959 46.29 2.777 19.312 15.942 33.548 15.942 33.548l6.797-3.24z" fill="#4856DF"/><path d="M299.847 453.147l-41.193 18.682a3.393 3.393 0 00.943 6.02c.813.251 1.69.187 2.459-.179l62.507-29.126c-2.449-6.762-8.748-9.363-23.67-11.963l-.64-.12a42.535 42.535 0 00-.406 16.686z" fill="#3EC1F3"/><path d="M300.253 436.44c-4.296-.821-7.667-2.252-10.449-4.415-5.128-3.995-8.27-10.496-11.552-20.285l-41.36 19.369c3.506 8.057 8.426 16.53 13.113 23.926 4.093 6.439 7.999 12.051 10.626 15.811l-1.493.723c-.17.083-.332.18-.484.291l41.193-18.682a42.533 42.533 0 01.406-16.738z" fill="#A15842"/><path d="M241.189 340.234a22.3 22.3 0 0013.096-4.239c-6.455-18.141-12.051-25.698-28.976-33.573l-.312-.141a22.426 22.426 0 003.829 34.233 22.425 22.425 0 0012.363 3.71v.01zM77.57 325.619a12.664 12.664 0 0012.665-12.659v-16.577h-15.5c-1.367 8.993-1.29 19.572 1.332 29.221h.62l.883.015z" fill="#3EC1F3"/><path d="M202.377 355.609h15.12m49.916-160.29s-27.218-31.248-59.377-42.582" stroke="#30242A" stroke-width="4" stroke-linecap="round" stroke-linejoin="round"/><path d="M182.041 164.945c-.988-2.388 2.309-6.133 7.802-9.295-7.438-1.851-12.722-5.3-12.192-8.197.531-2.897 6.689-4.26 14.303-3.365-4.005-4.889-5.768-9.56-3.999-11.443 2.252-2.408 9.398.63 15.957 6.762 5.721 5.357 9.102 11.318 8.384 14.35-.4 3.089-5.669 7.469-12.909 10.465-8.327 3.453-16.082 3.776-17.346.723z" fill="#3546AB"/><path d="M212.567 163.462a9.497 9.497 0 000-18.994c-5.246 0-9.498 4.252-9.498 9.497s4.252 9.497 9.498 9.497z" fill="#30242A"/><path d="M232.577 166.197c2.61-.969 1.423-10.646-2.649-21.614s-9.489-19.074-12.099-18.105c-2.609.968-1.423 10.645 2.649 21.613 4.073 10.969 9.49 19.075 12.099 18.106z" fill="#30242A"/><path d="M232.113 168.102s4.036 11.089 2.018 22.682" stroke="#30242A" stroke-width="4" stroke-linecap="round" stroke-linejoin="round"/><path d="M158.511 123.933c-8.603 9.68-17.747 11.817-17.747 11.817-5.913-6.449-16.643-6.449-18.282 2.69-1.784 10.126 10.741 12.914 10.741 12.914s3.157 13.065-1.685 19.52c-4.276 5.721-9.768 6.663-21.024 7.921 14.668 24.784 29.647 22.828 34.635 22.828 11.963 0 15.333-13.882 16.274-21.038a71.027 71.027 0 00-8.321-2.346l-1.613-9.674s7.526 2.683 13.981-1.077 8.067-10.756 5.914-21.507c-1.275-6.371-1.228-14.251-2.32-21.293-4.26.723-10.553-.755-10.553-.755zm89.481 53.999c-2.284-9.138-20.16-14.095-20.16-14.095s1.071-20.514-3.532-21.169c-3.526-.52-7.058 8.067-10.079 24.7-3.381 18.589-1.514 52.922-1.514 52.922s-3.74-3.396-9.045-8.124a6.54 6.54 0 01-5.721 3.641 6.541 6.541 0 01-1.582 9.546 6.54 6.54 0 01-3.427 1.049 6.539 6.539 0 01-1.582 9.546 6.54 6.54 0 01-3.427 1.048 6.547 6.547 0 01.617 7.167 6.54 6.54 0 01-6.338 3.402c11.042 7.188 26.053 15.573 36.055 15.573 52.417-.021 31.248-79.157 29.735-85.206z" fill="#A15842"/><path d="M188.683 243.826a6.556 6.556 0 00-.775-6.85 6.543 6.543 0 005.009-10.595 6.546 6.546 0 006.373-7.281 6.543 6.543 0 00-1.365-3.314 6.542 6.542 0 005.722-3.641c-9.144-8.145-22.932-20.222-30.271-25.647-3.553-2.626-8.078-4.572-11.963-5.913-.915 7.177-4.265 21.038-16.228 21.038-4.967 0-19.967 1.956-34.634-22.828l-4.712.52c-16.228 1.805-23.614 10.538-27.962 20.972-2.689 6.454-4.842 18.282-4.842 18.282a221.082 221.082 0 00-2.57 32.767l21.102 19.53 56.651 1.4c4.535-6.689 12.857-19.042 15.603-23.78 3.527-6.049 4.031-11.089 4.031-11.089s6.054 4.733 14.35 10.137a6.542 6.542 0 006.481-3.708z" fill="#FFBE21"/><path d="M164.43 112.101c-6.45-8.062-24.196-13.44-38.177-3.225-13.981 10.215-12.904 26.885-12.368 33.34 0 0-15.052-4.843-25.808 6.449a27.219 27.219 0 00-6.99 24.737s-19.807-.557-23.66 17.746c-2.19 10.402 1.898 17.325 6.433 21.611a28.975 28.975 0 009.16 5.81s2.153-11.828 4.842-18.282c4.348-10.434 11.733-19.167 27.961-20.972l4.712-.52c11.256-1.258 16.748-2.215 21.023-7.921 4.837-6.455 1.665-19.52 1.665-19.52s-12.54-2.788-10.756-12.904c1.617-9.139 12.368-9.139 18.282-2.689 0 0 9.144-2.148 17.746-11.828 0 0 6.294 1.478 10.585.755-.734-4.848-2.024-9.295-4.65-12.587z" fill="#30242A"/><path d="M249.11 185.115c-1.524-.702-2.434-2.471-2.174-5.852 0 0-3.152 3.953-6.507 2.195-3.355-1.758-2.013-5.544-2.013-5.544s-3.027 2.018-5.544-.52c-2.283-2.284-.52-6.049-.52-6.049s-3.35 1.368-4.536-1.009c-1.492-2.975.323-6.091 2.289-8.478" stroke="#30242A" stroke-width="8" stroke-linecap="round" stroke-linejoin="round"/><path d="M80.13 173.839a24.108 24.108 0 003.037 7.619" stroke="#000" stroke-width="4" stroke-miterlimit="10" stroke-linecap="round"/><path d="M211.698 220.94l1.264 15.713m-46.878-16.644c3.292 5.93 3.25 13.045 2.824 17.263m-32.565-.619l-16.128.505m30.999-67.6a60.438 60.438 0 01-6.585-3.053m10.615 17.98l-.879-5.57" stroke="#30242A" stroke-width="4" stroke-linecap="round" stroke-linejoin="round"/><path d="M112.798 142.418l1.118 9.3" stroke="#000" stroke-width="4" stroke-miterlimit="10" stroke-linecap="round"/><path d="M166.084 153.486c-1.139.739-4.915.983-6.725-2.309m-23.52-8.28l-5.04-2.517m28.31.286c-.806 1.097-4.608 3.224-7.469.795m19.718-2.382a4.692 4.692 0 01-3.527-.655m-3.292 2.528c.577 1.305 1.134 2.746 1.014 3.297a3.059 3.059 0 01-1.134 1.675" stroke="#30242A" stroke-width="4" stroke-linecap="round" stroke-linejoin="round"/><path d="M133.077 148.987l-6.881 6.492a2.995 2.995 0 001.04 4.998l8.135 2.886a2.997 2.997 0 003.968-3.219l-1.253-9.362a3.008 3.008 0 00-.64-1.485 3.003 3.003 0 00-4.369-.31z" fill="#F4E6D8"/><path d="M231.863 150.714s3.526-2.018 6.553-1.009c4.681 1.561 3.995 5.919 3.995 5.919s6.564-2.366 7.838 4.572c0 0 5.919 1.326 4.587 7.245 0 0 4.791.255 3.839 6.533-.952 6.278-5.139 11.494-7.656 11.494-2.601 0-4.437-1.596-4.083-6.241 0 0-3.152 3.953-6.507 2.195-3.355-1.758-2.013-5.545-2.013-5.545s-3.027 2.019-5.544-.52c-2.283-2.283-.52-6.049-.52-6.049s-3.35 1.368-4.536-1.009c-2.522-5.04 4.416-10.459 5.545-12.092l-1.498-5.493z" fill="#A15842"/><path d="M230.365 171.144c3.464-3.177 9.362-9.174 12.16-15.468m-5.799 22.724a55.618 55.618 0 0013.809-17.684m-4.899 21.419c1.56-1.904 7.016-8.744 9.721-14.158" stroke="#30242A" stroke-width="4" stroke-linecap="round" stroke-linejoin="round"/><path d="M244.658 297.897h-87.297l19.843-62.69a9.12 9.12 0 018.696-6.356h73.768a9.12 9.12 0 018.697 11.869l-16.41 51.841a7.664 7.664 0 01-7.297 5.336z" fill="#30242A"/><path d="M106.697 290.839a5.422 5.422 0 00.792 4.839 5.415 5.415 0 004.373 2.219h132.796a7.657 7.657 0 007.281-5.347l.521-1.711H106.697z" fill="#30242A"/><path d="M231.286 257.978c-2.029-2.777-11.251 4.556-11.927 5.165-.353-.609-5.149-7.942-8.67-5.165-3.053 2.408 3.641 13.159 5.446 15.9a.8.8 0 00.592.265.807.807 0 00.593-.265c3.282-2.767 15.729-13.518 13.966-15.9z" fill="#FFBE21"/><path d="M222.859 256.015c.733-2.353.703-4.455-.068-4.695-.771-.24-1.989 1.473-2.722 3.826-.733 2.353-.703 4.455.068 4.695.771.24 1.99-1.473 2.722-3.826zM56.677 241.059a6.567 6.567 0 003.56.328 6.567 6.567 0 003.202-1.587 6.536 6.536 0 0010.922 4.254 6.539 6.539 0 004.144 5.51 6.537 6.537 0 006.779-1.26 6.533 6.533 0 008.28 5.721l7.864-21.122a67.27 67.27 0 004.229-25.376l-.796-28.087s-18.147 1.509-28.732 14.616c-5.43 6.725-16.087 24.492-22.916 43.809a6.538 6.538 0 003.464 3.194z" fill="#FFBE21"/><path d="M89.44 253.817a6.541 6.541 0 01-4.162-5.513 6.547 6.547 0 01-6.778 1.26 6.539 6.539 0 01-4.144-5.51 6.537 6.537 0 01-10.923-4.254 6.537 6.537 0 01-5.614 1.593 6.546 6.546 0 01-4.653-3.523c-5.919 16.743-8.966 34.656-3.235 47.549 12.337 27.769 49.365 17.996 58.102 15.427 8.738-2.569 25.715-11.313 37.028-9.768 11.312 1.545 24.164 7.199 26.224 0 0 0 6.923-.177 4.743-6.761 0 0 3.48-.432 3.995-3.001 1.04-5.144-11.313-9.768-11.313-9.768s9.773 1.56 11.828-.52c2.6-2.601.073-6.798-15.89-10.668-17.533-4.244-40.673-1.675-75.126 4.494l4.031-10.834a6.486 6.486 0 01-4.114-.203z" fill="#A15842"/><path d="M101.563 230.1l-11.51 33.599m81.762 8.218c-5.586-2.122-14.885-5.378-22.105-6.553m26.464 18.682c-7.178-3.23-20.888-9.091-28.263-10.194m-58.305-10.08c-3.87.624-9.945 1.659-16.015 2.871m97.481 25.143c-5.384-2.741-16.727-8.192-24.701-9.711" stroke="#30242A" stroke-width="4" stroke-linecap="round" stroke-linejoin="round"/><path d="M412.005 225.419s-4.088 9.195-14.813 9.195c-10.724 0-14.833-9.195-14.833-9.195s-30.167 68.967-.52 105.24h30.65c29.631-36.273-.484-105.24-.484-105.24z" fill="#3EC1F3"/><path d="M397.166 234.614c10.725 0 14.813-9.195 14.813-9.195h-29.646s4.103 9.195 14.833 9.195z" fill="#30242A"/><path d="M424.873 286.818c-16.675.297-36.408 6.32-51.596 27.567m-2.668-44.444c11.193-2.731 32.388-5.332 52.933-.442m-.094 35.024c-7.459.089-21.247 8.541-19.728 25.574" stroke="#F5EBDD" stroke-width="4" stroke-linecap="round" stroke-linejoin="round"/><path d="M395.289 231.556c-.312-7.412-2.284-36.866-13.986-54.144" stroke="#30242A" stroke-width="4" stroke-miterlimit="10" stroke-linecap="round"/><path d="M392.85 208.907c1.496-2.535-6.435-9.986-17.714-16.64-11.279-6.655-21.635-9.994-23.132-7.458-1.496 2.536 6.435 9.986 17.714 16.641 11.279 6.654 21.636 9.993 23.132 7.457zm-4.38-73.504c2.196-1.252 1.067-7.369-2.521-13.663-3.588-6.293-8.278-10.38-10.473-9.128-2.196 1.252-1.068 7.369 2.521 13.662 3.588 6.294 8.277 10.381 10.473 9.129z" fill="#30242A"/><path d="M349.841 162.084c1.181-2.627 6.735-2.819 13.487-.806-4.161-7.443-5.436-14.366-2.684-16.15 2.751-1.784 8.566 2.164 13.669 9.014.899-6.985 3.333-11.963 6.241-11.994 3.672 0 6.678 8.098 6.715 18.116a44.566 44.566 0 01-.76 8.54 10.574 10.574 0 00-13.633 4.465 10.574 10.574 0 00-1.336 5.027 44.75 44.75 0 01-7.843-2.715c-9.17-4.104-15.359-10.142-13.856-13.497z" fill="#3546AB"/><path d="M376.331 169.558a10.55 10.55 0 0110.152-.744c-.894 4.655-2.512 8.109-4.457 9.232-1.852 1.347-5.773 1.4-10.512.26a10.575 10.575 0 014.817-8.748z" fill="#30242A"/><path d="M399.19 231.109c1.435-8.187 8.909-48.324 20.872-71.033" stroke="#30242A" stroke-width="4" stroke-miterlimit="10" stroke-linecap="round"/><path d="M460.439 215.701c.861-2.656-10.63-8.758-25.665-13.628-15.036-4.871-27.922-6.667-28.782-4.01-.861 2.656 10.63 8.758 25.665 13.628 15.036 4.871 27.922 6.667 28.782 4.01z" fill="#30242A"/><path d="M417.81 124.89c2.871-.26 5.763 4.489 7.318 11.36 4.431-7.282 9.851-11.786 12.758-10.262 2.908 1.524 2.315 8.525-1.154 16.332 6.532-2.637 12.082-2.97 13.523-.463 1.81 3.193-3.782 9.793-12.483 14.735a44.708 44.708 0 01-7.802 3.526 10.567 10.567 0 00-5.529-8.422 10.58 10.58 0 00-10.074.032 45.4 45.4 0 01-1.483-8.171c-.962-9.975 1.269-18.334 4.926-18.667z" fill="#3546AB"/><path d="M424.296 151.635a10.57 10.57 0 015.633 8.483c-4.5 1.503-8.322 1.789-10.236.645-2.081-.952-4.052-4.348-5.384-9.034a10.563 10.563 0 019.987-.094z" fill="#30242A"/><path d="M448.819 172.507v.042a10.58 10.58 0 006.304 20.113v.041c-13.705 4.291-26.229 3.251-27.977-2.33-1.748-5.581 7.968-13.575 21.673-17.866z" fill="#3546AB"/><path d="M445.558 189.999a5.134 5.134 0 00-3.084-9.763 10.571 10.571 0 016.356-7.687l6.303 20.113a10.584 10.584 0 01-9.575-2.663z" fill="#FFB494"/><path d="M448.523 183.705a5.137 5.137 0 01-2.965 6.294 10.585 10.585 0 01-3.084-9.763 5.14 5.14 0 016.049 3.469z" fill="#30242A"/></svg>