<svg width="455" height="323" fill="none" xmlns="http://www.w3.org/2000/svg"><path d="M439.211 121H245.724C237.04 121 230 128.04 230 136.724v149.134c0 8.684 7.04 15.724 15.724 15.724h193.487c8.685 0 15.725-7.04 15.725-15.724V136.724c0-8.684-7.04-15.724-15.725-15.724z" fill="#F5EBDD"/><path d="M438.075 122.39c4.12 0 8.071 1.635 10.984 4.545a15.512 15.512 0 014.55 10.973v147.184c0 4.115-1.637 8.063-4.55 10.973a15.542 15.542 0 01-10.984 4.545h-191.15c-4.12 0-8.071-1.635-10.984-4.545a15.512 15.512 0 01-4.55-10.973V137.908c0-4.115 1.637-8.063 4.55-10.973a15.542 15.542 0 0110.984-4.545h191.15zm0-1.39h-191.15a16.955 16.955 0 00-11.963 4.957A16.92 16.92 0 00230 137.908v147.184a16.92 16.92 0 004.962 11.951A16.955 16.955 0 00246.925 302h191.15a16.955 16.955 0 0011.963-4.957A16.92 16.92 0 00455 285.092V137.908a16.92 16.92 0 00-4.962-11.951A16.955 16.955 0 00438.075 121z" fill="#fff"/><path d="M383.271 196.456s-7.741.423-13.513-2.789c-5.468-3.044-6.349-7.811-4.442-17.245 0 0-3.418-2.029-3.076-4.058.222-1.336 4.101-2.705 4.101-2.705.485-2.577 1.1-6.472 2.098-10.455 2.497.485 5.033.743 7.577.771 7.628 8.49 15.956 9.008 15.956 9.008a12.996 12.996 0 014.761-4.241l11.377 4.487c.108.364.197.733.266 1.106 1.582 8.876-9.569 12.173-9.569 12.173 2.249 8.501 9.569 11.835 15.064 13.144l-.464 4.223h-30.71l.574-3.419zm-73.555 67.328c-26.656-7.778-28.365-69.995-28.365-69.995l13.906-17.705s-2.628-12.728.106-15.095c3.301-2.857 7.46 6.087 11.961 17.245 4.73 11.724 13.564 46.204 14.247 48.571 0 0 6.63-3.084 14.487-6.668l1.114 3.625 10.137 33.81c-11.114 4.501-26.865 9.343-37.593 6.212z" fill="#EAA58B"/><path d="M398.807 182.508s11.151-3.297 9.569-12.173a10.784 10.784 0 00-.266-1.106l8.287 3.257c0 .233-.038.453-.055.676l-2.471 22.49c-5.505-1.309-12.815-4.643-15.064-13.144zm-6.835-13.525s-8.328-.518-15.956-9.008a42.082 42.082 0 01-7.577-.771 53.35 53.35 0 011.507-5.032l26.787 10.571a12.993 12.993 0 00-4.761 4.24z" fill="#A15842"/><path d="M408.11 169.23l-11.377-4.487c4.699-2.36 9.856-.639 11.377 4.487z" fill="#30242A"/><path d="M396.733 164.743l-26.787-10.571c.933-2.6 2.095-5.004 3.572-6.83 5.721-7.077 19.766-12.214 32.165-3.25 11.938 8.633 11.21 22.351 10.714 28.404l-8.287-3.27c-1.521-5.123-6.678-6.844-11.377-4.483z" fill="#30242A"/><path d="M364.8 214.754l.813-6.959c9.412-2.716 16.213-2.847 16.213-2.847l.854-5.073h30.727l-.482 4.396a52.28 52.28 0 019.084.768l-4.3 9.715H364.8zm43.966 20.288h-46.342l1.186-10.145h49.633l-4.477 10.145zm-4.481 10.144l-4.477 10.144h-39.684l.407-3.841-.034.017.741-6.32h43.047zm-11.971 25.577s-22.272 1.468-34.175 3.381l.916-8.669h35.675l-2.416 5.288z" fill="#4756DF"/><path d="M363.61 224.898l1.19-10.145h52.92l-4.477 10.145H363.61zm45.156 10.144l-4.481 10.144h-43.046l1.185-10.144h46.342zm-9.959 21.519l-4.077 8.913h-35.675l1.069-10.144h39.264l-.581 1.231z" fill="#FFB494"/><path d="M336.082 220.122c3.883-1.771 8.062-3.678 11.886-5.369 3.353-1.495 6.435-2.847 8.804-3.841a79.095 79.095 0 018.841-3.118l-.813 6.959-1.19 10.144-1.186 10.144-1.185 10.144-.742 6.32c-.342.176-3.353 1.782-7.915 3.825a163.873 163.873 0 01-5.02 2.143l-.246.098-10.144-33.814-1.114-3.624.024-.011z" fill="#4756DF"/><path d="M394.73 265.474l4.077-8.913.581-1.231h.421l-.896 2.029 33.304 11.984c-5.612 11.057-11.962 20.545-16.664 25.089-16.404 15.893-59.362 5.992-59.362 5.992s-4.887 3.814-11.38 5.167c-11.62 22.655-18.011 14.783-18.011 14.783s-4.101 4.396-7.177-.338c-6.151.338-5.809-3.381-.341-16.23-6.152 7.439-12.276 7.557-12.406 5.505-.342-5.411 15.037-23.332 29.152-29.175 8.489-3.513 22.111-5.992 22.111-5.992 11.903-1.897 34.175-3.381 34.175-3.381l2.416-5.289z" fill="#EAA58B"/><path d="M422.009 205.039c6.339 1.075 14.469 3.628 19.165 9.715 2.088 2.705 3.5 6.086 3.759 10.36.776 12.312-5.321 29.635-12.727 44.229l-33.293-11.984 23.096-52.32z" fill="#4756DF"/><path d="M388.999 200.335l-.684 5.965m6.494-5.965l-.684 5.965" stroke="#30242A" stroke-width="4" stroke-linecap="round" stroke-linejoin="round"/><path d="M383.251 197.17a18.242 18.242 0 006.435-1.691m-71.142 108.158c1.315-2.888 2.822-6.019 4.179-8.393m6.418 3.368c-4.268 7.419-7.566 15.771-9.569 21.407m17.142-17.012c-3.075 5.583-6.571 12.319-9.094 17.337" stroke="#A15842" stroke-width="4" stroke-miterlimit="10" stroke-linecap="round"/><path d="M360.087 251.364l1.233-12.602" stroke="#30242A" stroke-width="4" stroke-linecap="round" stroke-linejoin="round"/><path d="M322.344 226.669l2.303 8.927" stroke="#A15842" stroke-width="4" stroke-miterlimit="10" stroke-linecap="round"/><path d="M413.065 203.595h-4.241m-27.726 1.386l-.643 3.807" stroke="#30242A" stroke-width="4" stroke-linecap="round" stroke-linejoin="round"/><path d="M373.757 146.541l43.06 16.231" stroke="#4756DF" stroke-width="4" stroke-miterlimit="10" stroke-linecap="round"/><path d="M392.895 269.961l9.33-.551" stroke="#A15842" stroke-width="4" stroke-miterlimit="10" stroke-linecap="round"/><path d="M392.553 270.299l12.853-28.157" stroke="#30242A" stroke-width="4" stroke-linecap="round" stroke-linejoin="round"/><path d="M294.084 173.129c.786 3.067 1.887 7.101 2.987 10.178 0 0-5.809 10.144.342 21.979" stroke="#A15842" stroke-width="4" stroke-miterlimit="10" stroke-linecap="round"/><path d="M280.356 273.17h14.829a.383.383 0 00.383-.378v-10.753a.38.38 0 00-.383-.379h-14.829a5.842 5.842 0 00-4.108 1.684 5.72 5.72 0 00-.005 8.138 5.826 5.826 0 004.113 1.688v0z" stroke="#A15842" stroke-width="8" stroke-miterlimit="10"/><path d="M299.614 259.908c12.238 0 17.897-9.65 17.897-9.65l-8.229 35.413h-19.336l-8.226-35.413a20.92 20.92 0 007.685 7.116 21.188 21.188 0 0010.209 2.534z" fill="#FF7235"/><path d="M299.614 259.908a21.188 21.188 0 01-10.209-2.534 20.92 20.92 0 01-7.685-7.116h35.791s-5.659 9.65-17.897 9.65z" fill="#A15842"/><path d="M396.521 175.192l5.126-3.72" stroke="#A15842" stroke-width="4" stroke-miterlimit="10" stroke-linecap="round"/><path d="M372.366 171.018a1.41 1.41 0 01-1.418-1.403 1.41 1.41 0 011.418-1.403 1.41 1.41 0 011.418 1.403 1.41 1.41 0 01-1.418 1.403z" fill="#30242A"/><path d="M425.727 175.618l-65.121-24.431" stroke="#30242A" stroke-width="4" stroke-linecap="round" stroke-linejoin="round"/><path d="M373.73 179.171c-.342.676-2.246 2.232-4.084 1.173" stroke="#A15842" stroke-width="4" stroke-miterlimit="10" stroke-linecap="round"/><path d="M282.451 205.644c.827-.825 1.463-2.219 1.292-4.416 0 0 3.076 1.69 5.126 0 2.693-2.222 1.709-5.411 1.709-5.411s3.076 1.015 4.443-1.352c1.483-2.567-.342-6.087-.342-6.087s2.457.338 3.076-2.029c.786-2.996-.858-5.721-2.587-7.692" stroke="#A15842" stroke-width="8" stroke-miterlimit="10" stroke-linecap="round"/><path d="M336.071 142.309l-48.481-18.221c-3.31-1.245-4.974-4.908-3.716-8.183l13.322-34.702c1.258-3.275 4.96-4.921 8.27-3.677l48.481 18.221c3.31 1.244 4.974 4.908 3.717 8.183l-13.323 34.702c-1.257 3.275-4.96 4.921-8.27 3.677z" fill="#30242A"/><path d="M278.868 226.034c-.536 1.397-2.115 2.099-3.526 1.569a2.696 2.696 0 01-1.585-3.49l35.351-92.08c.536-1.397 2.115-2.099 3.527-1.568a2.697 2.697 0 011.585 3.489l-35.352 92.08z" fill="#30242A"/><path d="M315.037 99.15a6.516 6.516 0 014.933-.062 6.422 6.422 0 013.536 3.403l.745 1.718 1.736-.74a6.508 6.508 0 014.893-.019 6.418 6.418 0 013.496 3.387c.67 1.539.7 3.278.085 4.84a6.407 6.407 0 01-3.375 3.505l-1.736.74-11.835 5.045-5.102-11.713-.745-1.714a6.32 6.32 0 011.294-6.978 6.444 6.444 0 012.075-1.411z" fill="#FFB494"/><path d="M285.694 172.527c-3.181 1.89-2.498 5.552-2.498 5.552s-6.401-.869-6.213 5.606c0 0-5.102 2.32-2.761 7.368 0 0-3.51.906-1.757 6.455 1.709 5.411 5.205 8.822 7.519 9.13 1.223.162 4.101-1.014 3.759-5.41 0 0 3.076 1.691 5.126 0 2.693-2.222 1.709-5.41 1.709-5.41s3.076 1.014 4.443-1.353c1.483-2.566-.342-6.086-.342-6.086s2.457.338 3.076-2.029c1.312-4.995-4.132-9.235-5.468-10.483l1.025-2.705s-4.443-2.522-7.618-.635z" fill="#EAA58B"/><path d="M295.872 189.599c-3.879-2.259-9.757-6.424-13.059-11.409m8.555 18.45a51.19 51.19 0 01-14.621-12.556m6.788 17.574c-2.734-2.029-6.494-5.749-9.665-10.026" stroke="#A15842" stroke-width="4" stroke-miterlimit="10" stroke-linecap="round"/><path d="M248.211 1H54.724C46.04 1 39 8.04 39 16.724v149.134c0 8.684 7.04 15.724 15.724 15.724h193.487c8.685 0 15.725-7.04 15.725-15.724V16.724C263.936 8.04 256.896 1 248.211 1z" fill="#F5EBDD"/><path d="M247.999 1.397a15.605 15.605 0 0115.604 15.605v147.996a15.604 15.604 0 01-15.604 15.605H56.001a15.6 15.6 0 01-15.604-15.605V17.002A15.605 15.605 0 0156.001 1.397h191.998zm0-1.397H56.001A17.017 17.017 0 0039 17.002v147.996A17.018 17.018 0 0056 182h192a17.02 17.02 0 0017-17.002V17.002A17.022 17.022 0 00247.999 0z" fill="#fff"/><path d="M34.159 76.67H202.3v10.145H34.159V76.671z" fill="#FFB494"/><path d="M133.942 67.147l-3.751 10.163 41.411 14.962a5.52 5.52 0 004.181-.176 5.435 5.435 0 002.831-3.05 5.362 5.362 0 00-.178-4.137 5.45 5.45 0 00-3.083-2.8l-41.411-14.962z" fill="#30242A"/><path d="M166.621 78.954l-3.752 10.164 8.732 3.154a5.522 5.522 0 004.181-.176 5.432 5.432 0 002.831-3.05 5.362 5.362 0 00-.178-4.137 5.45 5.45 0 00-3.083-2.8l-8.731-3.155z" fill="#30242A"/><path d="M125.953 81.858c-6.606 0-11.961-5.299-11.961-11.835 0-6.536 5.355-11.835 11.961-11.835s11.962 5.299 11.962 11.835c0 6.536-5.356 11.835-11.962 11.835z" fill="#4756DF"/><path d="M178.484 88.966c14.353 5.072 32.34 12.565 44.086-2.029 14.695-18.26-14.012-37.195-21.872-13.187-8.865 27.078 45.343 46.132 31.441 70.671-12.645 22.317-52.452-1.732-75.527 6.424-19.138 6.763-19.637 29.841-19.637 29.841" stroke="#30242A" stroke-width="4" stroke-miterlimit="10" stroke-linecap="round"/><path d="M139.76 69.232c.683-4.058 3.417-7.1 5.126-7.503 4.077-.954 6.329 2.705 6.329 2.705s3.227-2.925 7.738.998c0 0 5.167-1.596 7.399 2.995 0 0 2.296-.859 4.846 3.842 2.074 3.83 3.759 9.569 1.367 11.158-1.026.676-4.101.338-5.127-2.029 0 0-.922 1.691-2.734 1.353-3.759-.676-4.101-3.72-4.101-3.72s-.318 1.147-2.392 1.353c-3.363.338-5.126-3.043-5.126-3.043s-1.275.842-3.759 0c-3.319-1.126-4.177-6.04-4.177-6.04l-5.389-2.069z" fill="#A15842"/><path d="M10.357 124.342c-5.72-5.898-4.794-15.961 2.068-22.477 6.862-6.515 17.062-7.016 22.782-1.118 5.72 5.897 4.795 15.96-2.068 22.476-6.862 6.516-17.062 7.016-22.782 1.119z" fill="#30242A"/><path d="M40.31 114.543s-11.96-7.439-13.67-20.965" stroke="#000" stroke-width="4" stroke-linecap="round" stroke-linejoin="round"/><path d="M76.515 103.493c-2.873-8.97 1.183-18.244 9.059-20.713 7.875-2.469 16.588 2.802 19.461 11.773 2.872 8.971-1.183 18.244-9.059 20.713-7.875 2.469-16.588-2.802-19.46-11.773z" fill="#30242A"/><path d="M30.02 98.386c.311-1.072-18.506 10.398-14.695 14.202 3.595 3.571 13.13-8.785 14.695-14.202z" fill="#4756DF"/><path d="M29.87 99.053c.615-1.309-15.608-17.698-18.325-13.13-2.61 4.395 17.71 14.435 18.325 13.13z" fill="#4756DF"/><path d="M48.512 101.355c4.443-1.353 14.012-2.029 19.48-2.705 11.62-6.087 8.544-21.98 8.544-21.98-.683-.337-11.808-2.336-10.273-10.931 1.367-7.777 10.618-7.777 15.697-2.286 0 0 7.22-3.013 9.271-12.819 0 0 6.097.693 10.325-.412.919 4.02 1.148 8.426 1.978 12.923 0 0 4.443.338 4.785 2.03.342 1.785-3.172 3.895-3.172 3.895 2.393 8.595 2.051 16.386-3.321 19.436-4.785 2.705-10.595 1.69-10.595 1.69l.684 8.116a51.771 51.771 0 0117.429 3.719c11.343 4.572 37.934 21.979 37.934 21.979-2.05-6.762-10.461-28.092-13.67-41.59-1.367-5.75-2.734-11.16.684-11.498 3.739-.371 9.227 11.16 9.227 11.16l23.239 8.453c13.701 18.337 29.733 59.85 8.886 70.333-18.797 9.467-60.832-13.526-60.832-13.526l3.759 33.814h-68.35l-15.379-72.024s-.064-.067-.18-.199c4.804-4.112 10.59-6.587 13.85-7.578z" fill="#A15842"/><path d="M57.398 94.714h34.213l.304 3.598c2.665.075 5.318.382 7.928.92.872.172 1.795.375 2.755.615a51.826 51.826 0 016.746 2.185c.482.192.998.416 1.535.652.991.447 2.05.961 3.209 1.532 7.71 3.872 18.311 10.35 25.443 14.838l-9.261 18.323-4.648 9.198-2.478 4.899c-5.085-2.367-8.332-4.132-8.332-4.132l3.759 33.814h-68.35l-15.379-72.023a27.802 27.802 0 01-2.272-2.868v-.098l24.828-11.453z" fill="#FFBE21"/><path d="M106.166 104.287l4.713-1.603c.991.446 2.05.96 3.209 1.532l-3.862 6.252 7.672 10.354-10.116-4.139-5.635 10.283-.643-11.321-9.767-2.07 8.373-5.177-.267-9.167c.872.173 1.795.376 2.755.616l3.568 4.44zm17.081 38.849l-8.367-1.234-.092-2.469 4.33-1.958-3.575-10.536 9.546 6.211 6.001-6.762-.868 10.972.048.017-4.648 9.198-2.375-3.439zM70.545 114.85l-3.838 12.768-3.834-12.768-12.211-3.452 11.862-4.832V95.522l6.627 8.626 9.418-4.487-5.58 9.319 8.718 7.25-11.162-1.38zm11.62 63.523l7.183-10.513-6.168-9.204 10.341 3.564 5.345-8.889.554 10.82 11.315 1.271-10.071 4.954 3.328 10.78h-1.763l-7.963-6.584-12.101 3.801zm-3.5-21.33l-8.37-7.246-9.418 6.212 4.186-10.354-7.327-7.936 10.465 1.724 4.883-8.629 1.05 9.319 9.763-.345-8.37 6.212 3.138 11.043z" fill="#FF7235"/><path d="M91.231 50.634c-2.05 9.806-9.271 12.82-9.271 12.82-5.079-5.482-14.313-5.482-15.697 2.285-1.534 8.595 9.59 10.594 10.273 10.932 0 0 3.076 15.892-8.544 21.979-5.468.676-15.037 1.353-19.48 2.705-3.26.991-9.046 3.466-13.85 7.578-1.71-1.907-14.716-17.404-2.554-32.6 8.445-10.557 22.324-8.748 22.324-8.748-.462-5.484-1.367-19.646 10.618-28.326s27.244-4.111 32.784 2.743c1.979 2.444 3.042 5.227 3.722 8.22-4.228 1.105-10.325.412-10.325.412z" fill="#30242A"/><path d="M144.151 81.817c.486 1.11.985 2.367 1.419 3.646 0 0 7.86 1.69 9.975 6.931" stroke="#30242A" stroke-width="4" stroke-miterlimit="10" stroke-linecap="round"/><path d="M146.294 123.341l4.06 10.523" stroke="#30242A" stroke-width="4" stroke-linecap="round" stroke-linejoin="round"/><path d="M114.129 134.831l1.421 12.653" stroke="#724342" stroke-width="4" stroke-linecap="round" stroke-linejoin="round"/><path d="M92.598 91.211a37.263 37.263 0 01-9.121-2.644m-6.152-19.213l-4.442-2.705" stroke="#30242A" stroke-width="4" stroke-miterlimit="10" stroke-linecap="round"/><path d="M53.912 67.443c.253 2.505.595 5.64.926 8.115" stroke="#000" stroke-width="4" stroke-miterlimit="10" stroke-linecap="round"/><path d="M78.963 73.466l1.244 7.48a1.926 1.926 0 01-.656 1.787 1.974 1.974 0 01-1.884.38l-6.657-2.114a1.967 1.967 0 01-.839-.527 1.939 1.939 0 01-.453-1.85 1.94 1.94 0 01.502-.849l5.397-5.376a1.984 1.984 0 012.9.102c.236.275.39.61.446.966z" fill="#F4E6D8"/><path d="M94.946 71.578c.311 4.47 4.966 4.775 6.059 1.6l-6.059-1.6zm-.752-8.247c.827.402 3.78.487 4.737-1.85" stroke="#30242A" stroke-width="4" stroke-linecap="round" stroke-linejoin="round"/><path d="M48.512 101.355l.106 54.562s33.595-19.899 36.192-20.058c1.91-.119 3.332 4.162-.116 7.699 9.295-1.708 18.533-2.604 19.985.196.875 1.691-.55 3.449-.55 3.449 1.114.139 2.201.43 2.823 1.153 1.493 1.735-.557 4.396-.557 4.396 1.893.903 1.24 3.72-.468 5.072-4.18 3.304-16.702 5.664-16.702 5.664 4.505.544 13.171 1.052 12.707 3.588-.684 3.719-19.822 3.719-19.822 3.719-7.177 4.734-13.093 4.612-13.093 4.612s-17.524 17.8-35.2 21.979c-45.453 7.778-9.91-76.419-.342-87.239 5.94-6.719 15.037-8.792 15.037-8.792z" fill="#A15842"/><path d="M91.993 164.26a331.56 331.56 0 00-7.597 0m22.32-10.74c-5.591 1.014-15.468 2.884-22.672 4.642m20.423-10.796c-6.927.936-16.872 2.367-23.147 3.696m2.632-7.903a62.54 62.54 0 00-7.416 2.154" stroke="#30242A" stroke-width="4" stroke-linecap="round" stroke-linejoin="round"/><path d="M28.37 125.113l.642 11.321 5.636-10.273 10.115 4.139-7.672-10.354 5.91-9.569-9.97 3.381-1.158-1.461a20.517 20.517 0 011.616-2.15c5.94-6.719 15.037-8.792 15.037-8.792l.079 40.543-3.028 2.938-8.37-9.069 4.231 12.457-.741.541-23.062-4.903a188.712 188.712 0 017.676-19.392l3.059.643z" fill="#FFBE21"/><path d="M43 110.366l-5.909 9.57 7.672 10.353-10.115-4.138-5.636 10.282-.642-11.321-3.076-.645c2.413-5.194 4.723-9.448 6.548-12.173l1.172 1.457L43 110.366zm-1.575 37.859l-4.231-12.461 8.37 9.072 3.027-2.938.017 8.555-7.925-1.687.742-.541z" fill="#FF7235"/><path d="M49.302 134.337v20.319" stroke="#724342" stroke-width="4" stroke-linecap="round" stroke-linejoin="round"/><path d="M49.435 154.656s-6.626 3.966-16.879 10.053" stroke="#30242A" stroke-width="4" stroke-linecap="round" stroke-linejoin="round"/><path d="M167.086 68.722c.93 3.412 1.757 8.217 1.056 13.147m-8.297-16.198c.898 2.672 1.849 7.284 1.288 14.135m-9.173-15.433c.978 2.837 2.287 7.29 1.73 12.977m-9.532-10.248s.099 2.096.267 4.396" stroke="#30242A" stroke-width="4" stroke-miterlimit="10" stroke-linecap="round"/></svg>