<svg width="445" height="340" fill="none" xmlns="http://www.w3.org/2000/svg"><path d="M427.868 12.732a15.721 15.721 0 0115.724 15.725V177.59a15.726 15.726 0 01-15.724 15.724H234.381a15.723 15.723 0 01-15.725-15.724V28.457a15.724 15.724 0 0115.725-15.725h193.487zm0-1.408H234.381a17.151 17.151 0 00-17.133 17.133V177.59a17.148 17.148 0 0017.133 17.132h193.487A17.147 17.147 0 00445 177.59V28.457a17.151 17.151 0 00-17.132-17.133z" fill="#fff"/><path d="M427.868 12.732H234.381c-8.685 0-15.725 7.04-15.725 15.724V177.59c0 8.684 7.04 15.724 15.725 15.724h193.487c8.684 0 15.724-7.04 15.724-15.724V28.456c0-8.684-7.04-15.724-15.724-15.724z" fill="#F5EBDD"/><path d="M229.685 119.04a15.725 15.725 0 0115.724 15.724v149.134a15.722 15.722 0 01-15.724 15.724H36.198a15.724 15.724 0 01-15.724-15.724V134.764a15.726 15.726 0 0115.724-15.724h193.487zm0-1.408H36.198a17.147 17.147 0 00-17.132 17.132v149.134a17.15 17.15 0 0017.132 17.132h193.487a17.151 17.151 0 0017.132-17.132V134.764a17.147 17.147 0 00-17.132-17.132z" fill="#fff"/><path d="M229.685 119.04H36.198c-8.684 0-15.724 7.04-15.724 15.724v149.134c0 8.684 7.04 15.724 15.724 15.724h193.487c8.684 0 15.724-7.04 15.724-15.724V134.764c0-8.684-7.04-15.724-15.724-15.724z" fill="#F5EBDD"/><path d="M186.423 129.812v-.567l.169-.127-.166-.035c0-3.027-.257-12.018-3.196-18.868-2.612-6.086-6.217-8.899-8.719-7.825-2.503 1.074-2.95 5.632-.352 11.708 1.45 3.386 3.734 6.657 5.935 9.353-4.432-4.2-10.483-9.406-15.947-12.271-7.392-3.872-13.14-3.756-14.735-.722-1.594 3.035 1.584 7.84 8.969 11.715 4.805 2.524 11.367 4.393 16.943 5.664-2.989-.103-5.98.15-8.91.753-6.463 1.451-9.884 4.481-9.289 7.136.595 2.654 4.984 3.932 11.447 2.481 7.199-1.615 14.556-6.582 17.087-8.409l.447.067c.183.172.292.267.292.267v-.225h.106l-.081-.095zm71.071 32.007l-.109-.105v.218l.109-.113zm-8.438 8.526l-.088-16.963-8.659-8.571.172 34.194 8.575-8.66zm-59.821-46.68l.289 57.058 8.659 8.571-.376-74.288-8.572 8.659z" fill="#3EC1F3"/><path d="M160.853 152.34l20.254 20.051-.204-40.309-20.05 20.258zm71.3 35.078l-.257-50.936-8.663-8.575.345 68.174 8.575-8.663zm-17.333-67.839l-8.66-8.572.437 86.62 7.804 7.723.848-.855-.429-84.916z" fill="#3EC1F3"/><path d="M180.903 132.082l.204 40.309 8.417 8.332-.289-57.057-8.332 8.416zm23.039-23.271l-6.135 6.195.376 74.289 8.414 8.332-.437-86.62-2.218-2.196zm19.636 87.27l-.345-68.174-8.414-8.328.43 84.915 8.329-8.413zm16.903-17.076l-.172-34.194-8.413-8.329.257 50.936 8.328-8.413zm16.904-17.073v-.218l-8.417-8.332.088 16.963 8.329-8.413z" fill="#4756DF"/><path d="M217.301 122.215l-43.012 43.449" stroke="#000" stroke-width="4" stroke-linejoin="round"/><path d="M206.171 106.559l-47.551 48.035 12.916 12.786 47.551-48.035-12.916-12.786z" fill="#4756DF"/><path d="M193.312 184.162s4.576-15.137 1.76-17.601c-3.401-2.974-9.153 6.688-13.789 18.305-4.875 12.204-19.008 46.817-19.712 49.281 0 0-24.081-13.165-34.849-17.952-9.505-4.224-21.082-5.759-21.082-5.759l-1.472-8.839s6.875 2.464 12.768-.982c5.892-3.446 7.367-9.825 5.403-19.646-1.165-5.819-1.123-13.024-2.112-19.449-3.922.662-9.666-.686-9.666-.686-7.861 8.839-16.193 10.803-16.193 10.803-5.403-5.892-15.228-5.892-16.7 2.464-1.63 9.241 9.822 11.786 9.822 11.786s2.33 13.411-2.598 26.788c-6.847 18.586-34.448 23.518-45.762 15.488-20.416 14.433-2.355 58.283 14.785 78.851 14.08 16.896 64.066 8.096 64.066 8.096s5.632 4.224 12.32 5.632c11.969 23.585 16.897 16.897 16.897 16.897s4.224 4.576 7.392-.352c6.337.352 5.984-3.52.352-16.897 6.337 7.745 12.539 7.769 12.673 5.633.352-5.633-18.305-25.345-29.921-30.273-8.727-3.704-13.025-4.929-13.025-4.929l-1.76-28.513s37.356 20.516 54.914 10.913c22.529-12.321 31.681-72.867 31.681-72.867l-16.192-16.192z" fill="#EAA58B"/><path d="M84.892 212.675c4.928-13.376 2.577-26.795 2.577-26.795s-11.451-2.545-9.821-11.785c1.471-8.35 11.296-8.35 16.699-2.465 0 0 8.346-1.964 16.193-10.803 0 0 5.744 1.348 9.666.687-.687-4.425-1.862-8.491-4.267-11.494-5.892-7.364-22.099-12.278-34.866-2.946-12.768 9.332-11.79 24.556-11.296 30.449 0 0-22.082-5.407-33.829 11.208-14.432 20.417 3.168 39.426 3.168 39.426 11.328 8.036 38.93 3.104 45.776-15.482z" fill="#30242A"/><path d="M123.525 272.295l-.616-9.986h.032l-2.946-48.634a95.655 95.655 0 00-9.892-2.489l-1.626 33.522H81.02l-10.43-16.949a39.818 39.818 0 01-11.817 3.685l15.685 38.876 5.858 14.517s13.376.704 25.345 2.465c11.968 1.76 19.008 3.52 19.008 3.52l-1.144-18.527z" fill="#FF7235"/><path d="M193.836 185.035a88.59 88.59 0 01-.876 2.647s8.976 10.384 3.344 23.761m-35.557 22.391l-3.693 9.466m-.704 78.731c-1.489-3.376-3.33-7.326-4.956-10.209m-6.607 3.51c4.224 7.438 7.536 15.767 9.613 21.617M138.218 319.5c3.168 5.815 6.252 12.591 8.54 17.917" stroke="#BB7259" stroke-width="4" stroke-miterlimit="10" stroke-linecap="round"/><path d="M124.141 276.565l-46.817-.352" stroke="#724342" stroke-width="4" stroke-miterlimit="10" stroke-linecap="round"/><path d="M63.13 298.794a13.94 13.94 0 00-13.517 2.591 89.897 89.897 0 004.302 5.632c3.893 4.672 10.529 7.393 18.093 8.847 1.919-7.174-1.9-14.669-8.877-17.07zm114.693-25.573c3.059-1.672 5.868-4.224 8.448-7.413a13.72 13.72 0 00-6.973-5.382c-7.304-2.51-15.305 1.503-17.872 8.962a14.539 14.539 0 00-.728 6.058c6.389.753 12.457.327 17.125-2.225z" fill="#CA7358"/><path d="M58.77 231.444c-7.583 1.13-14.99.021-19.64-3.28-14.837 10.49-9.353 36.51 1.331 57.846l33.997-15.689-15.689-38.877zm26.122-18.769c-2.542 6.896-7.941 11.912-14.302 15.084l10.43 16.949h27.457l1.626-33.504a82.178 82.178 0 00-4.463-.768l-.683-4.097H86.73a47.895 47.895 0 01-1.838 6.336zm41.826 3.52a63.831 63.831 0 00-6.723-2.503l2.946 48.634a145.983 145.983 0 0014.401 6.65l14.432-40.108c-7.913-4.225-18.758-9.857-25.056-12.673z" fill="#FFBE21"/><path d="M34.194 246.136c9.428-5.444 13.238-16.496 8.51-24.685S26.5 211.036 17.072 216.48c-9.429 5.443-13.24 16.495-8.511 24.684 4.728 8.189 16.204 10.415 25.633 4.972z" fill="#30242A"/><path d="M30.506 212.146s2.464 14.785 14.433 19.361" stroke="#000" stroke-width="4" stroke-linecap="round" stroke-linejoin="round"/><path d="M296.627 125.2l1.408 10.561" stroke="#F5EBDC" stroke-width="4" stroke-miterlimit="10" stroke-linecap="round"/><path d="M413.671 112.704s15.841-18.657-1.76-34.497c-10.758-9.68-23.68-6.984-23.68-6.984.489-5.893 1.472-21.12-11.296-30.45-12.767-9.328-28.978-4.417-34.87 2.947-5.893 7.364-4.418 21.12-6.382 30.942-1.964 9.821-.493 16.192 5.4 19.646 5.892 3.453 12.771.982 12.771.982l-1.475 8.839s-11.574 1.535-21.079 5.759c-10.771 4.787-34.849 17.952-34.849 17.952-.704-2.464-4.576-42.593-6.336-55.618-1.341-9.923-5.984-22.176-9.504-19.712-3.415 2.39-2.113 10.208-2.113 10.208l-17.952 18.657s-8.874 63.971 12.32 81.315c15.489 12.672 55.97-7.745 55.97-7.745l-5.28 38.37h48.303s-9.057 2.407-27.886 10.912c-21.825 9.856-34.497 37.313-33.089 39.425 1.408 2.112 5.632.352 11.264-6.688-4.928 18.305 0 16.897 3.168 16.545 3.221 4.632 7.392-1.056 7.392-1.056s5.632 5.28 14.433-19.361a42.74 42.74 0 0010.912-7.392s55.97-3.52 66.882-23.233c10.913-19.713 3.52-71.107-11.264-89.763z" fill="#A15842"/><path d="M340.505 70.216a1.46 1.46 0 100-2.922 1.46 1.46 0 000 2.922z" fill="#30242A"/><path d="M80.14 284.31l-8.097-.352m32.002-81.537a41.198 41.198 0 01-6.17-2.7" stroke="#BB7259" stroke-width="4" stroke-miterlimit="10" stroke-linecap="round"/><path d="M69.242 177.428c.267 2.686.63 6.03.982 8.67" stroke="#000" stroke-width="4" stroke-linecap="round" stroke-linejoin="round"/><path d="M102.302 276.185s-8.156-11.543-4.368-13.06c3.059-1.225 3.932 7.755 4.368 13.06zm.257.204s4.01-9.258 6.527-7.776c2.031 1.197-3.327 5.358-6.527 7.776z" stroke="#724342" stroke-width="4" stroke-linecap="round" stroke-linejoin="round"/><path d="M106.442 210.683l.627 3.752m-18.15-36.451l-4.383-2.436" stroke="#BB7259" stroke-width="4" stroke-miterlimit="10" stroke-linecap="round"/><path d="M109.839 186.221c.25 4.619 4.995 5.002 6.157 1.76l-6.157-1.76z" stroke="#BB7259" stroke-width="4" stroke-linecap="round" stroke-linejoin="round"/><path d="M107.005 178.107a1.46 1.46 0 100-2.922 1.46 1.46 0 000 2.922zm10.863-2.64a1.46 1.46 0 100-2.922 1.46 1.46 0 000 2.922z" fill="#724342"/><path d="M114.13 178.432c.352.932.683 1.957.577 2.341a2.13 2.13 0 01-.855 1.122" stroke="#BB7259" stroke-width="4" stroke-miterlimit="10" stroke-linecap="round"/><path d="M101.215 139.358l1.862 2.045 1.232 1.359c.785 2.746-4.928 7.121-12.87 9.832-7.941 2.71-15.136 2.735-16.192.081l.148-1.831.225-2.756c2.981.704 8.156.137 13.693-1.76 5.537-1.898 9.98-4.576 11.902-6.97z" fill="#FFB494"/><path d="M87.166 140.069c4.154-1.408 7.695-3.288 10.018-5.147l4.031 4.436c-1.922 2.393-6.372 5.09-11.912 6.98-5.541 1.89-10.712 2.464-13.694 1.76l.483-5.984c2.974.053 6.92-.63 11.074-2.045z" fill="#FF7235"/><path d="M92.868 130.178l4.316 4.745c-2.323 1.858-5.864 3.731-10.018 5.146-4.154 1.415-8.096 2.112-11.074 2.049l.514-6.396a41.535 41.535 0 0016.263-5.544z" fill="#FFB494"/><path d="M82.889 127.53a41.974 41.974 0 005.48-2.299l4.5 4.946a41.52 41.52 0 01-16.263 5.544l.542-6.66a42.33 42.33 0 005.741-1.531z" fill="#FF7235"/><path d="M77.148 129.062l1.2-14.855 10.025 11.025a41.969 41.969 0 01-5.48 2.299 42.522 42.522 0 01-5.745 1.531z" fill="#FFB494"/><path d="M77.5 117.15a5.421 5.421 0 100-10.842 5.421 5.421 0 000 10.842z" fill="#FF7235"/><path d="M86.124 191.906a4.4 4.4 0 100-8.8 4.4 4.4 0 000 8.8z" fill="#F4E6D8"/><path d="M361.971 210.511l.905 2.024 5.421 12.148c16.685-2.063 48.672-7.822 56.638-22.216 10.913-19.713 3.521-71.106-11.264-89.763-12.32 13.549-31.371 9.856-39.01-1.408-1.408.35-2.842.585-4.287.704a25.767 25.767 0 01-6.759-.267 17.343 17.343 0 01-7.392-3.116c-2.785-2.094-3.802-4.361-3.802-4.361l-.472-.067c-2.161.32-12.218 1.95-20.649 5.699-10.771 4.787-34.849 17.953-34.849 17.953-.317-1.106-1.271-9.811-2.387-20.241l-13.672 5.28-1.482.574-7.072 2.739-12.859 4.977c.923 16.573 4.383 33.74 13.887 41.52 15.489 12.672 55.97-7.744 55.97-7.744l-5.28 38.369h48.303s-4.953 1.32-15.136 5.438l2.344 5.249 2.904 6.509z" fill="#FFB494"/><path d="M295.395 147.201a16.195 16.195 0 00-15.999 18.706c9.23 2.464 21.916-.43 32.132-3.873a16.193 16.193 0 00-16.133-14.833zm-15.841-29.217c0-1.53-.217-3.051-.644-4.52l-7.072 2.739-12.859 4.977c.236 4.249.641 8.536 1.271 12.694a16.196 16.196 0 0019.304-15.89zm46.818 11.264a16.183 16.183 0 0013.574-7.376 16.199 16.199 0 001.211-15.402 69.084 69.084 0 00-9.857 3.418c-4.956 2.203-12.732 6.181-19.684 9.835a16.185 16.185 0 0014.756 9.525zm39.425 36.962c8.943 0 16.193-7.25 16.193-16.193 0-8.943-7.25-16.192-16.193-16.192-8.942 0-16.192 7.249-16.192 16.192 0 8.943 7.25 16.193 16.192 16.193zm-31.681 9.504a16.114 16.114 0 00-8.448 2.39l-2.112 15.21h26.686c.042-.464.067-.932.067-1.408a16.192 16.192 0 00-16.193-16.192zm58.11-54.428c0 .306-.028.612-.028.922a16.194 16.194 0 0030.375 7.808c-2.488-6.981-5.498-13.025-8.902-17.312-6.213 6.832-14.137 9.279-21.445 8.582zm15.109 68.508a16.19 16.19 0 0015.08 16.151 18.57 18.57 0 002.52-3.478c3.591-6.484 5.2-16.4 5.214-27.457a16.195 16.195 0 00-20.85 7.047 16.187 16.187 0 00-1.964 7.737zm-34.145 16.192a16.133 16.133 0 00-11.219 4.524l.905 2.024 5.421 12.148a211.895 211.895 0 0021.039-3.64 16.19 16.19 0 00-16.146-15.056z" fill="#FF7235"/><path d="M400.471 183.282c-9.463 3.225-22.223 7.146-30.097 9.681m20.068-43.897l3.34 36.328" stroke="#F5EBDC" stroke-width="4" stroke-miterlimit="10" stroke-linecap="round"/><path d="M321.201 237.886c1.155-3.566 3.615-10.891 5.777-15.576m6.874 2.946c-4.907 10.56-7.786 22.599-8.853 27.591m15.728-24.156c-3.168 7.308-5.942 17.284-7.498 23.423" stroke="#30242A" stroke-width="4" stroke-miterlimit="10" stroke-linecap="round"/><path d="M329.973 142.431l-1.915 12.778" stroke="#F5EBDC" stroke-width="4" stroke-miterlimit="10" stroke-linecap="round"/><path d="M411.911 78.207c-10.758-9.68-23.68-6.984-23.68-6.984.489-5.893 1.471-21.12-11.296-30.45-12.767-9.328-28.978-4.417-34.87 2.947-2.401 3.003-3.58 7.069-4.267 11.493 3.922.662 9.67-.686 9.67-.686 7.857 8.839 16.193 10.803 16.193 10.803 5.403-5.893 15.224-5.893 16.699 2.464 1.63 9.24-9.825 11.785-9.825 11.785s-2.428 13.17 1.584 26.444a19.487 19.487 0 002.528 5.28c7.639 11.264 26.693 14.96 39.01 1.408a24.924 24.924 0 001.693-2.352c3.566-5.509 10.399-19.698-3.439-32.152z" fill="#30242A"/><path d="M353.801 95.913a31.574 31.574 0 006.54-2.745" stroke="#30242A" stroke-width="4" stroke-miterlimit="10" stroke-linecap="round"/><path d="M388.777 71.12c-.268 2.686-.627 6.03-.979 8.67" stroke="#000" stroke-width="4" stroke-miterlimit="10" stroke-linecap="round"/><path d="M369.099 71.677l4.383-2.436m-29.291 13.861c.806.504 3.823.894 5.048-1.425" stroke="#30242A" stroke-width="4" stroke-miterlimit="10" stroke-linecap="round"/><path d="M352.125 72.152a1.46 1.46 0 100-2.922 1.46 1.46 0 000 2.922z" fill="#30242A"/><path d="M344.011 74.25c-.225.972-.411 2.032-.257 2.394.211.437.563.79 1 1" stroke="#30242A" stroke-width="4" stroke-miterlimit="10" stroke-linecap="round"/><path d="M343.431 70.12c.878-3.787-1.174-7.498-4.583-8.288-3.409-.79-6.884 1.64-7.762 5.427-.878 3.788 1.174 7.5 4.583 8.29 3.409.79 6.884-1.64 7.762-5.428zm15.49 2.463c.878-3.788-1.174-7.499-4.583-8.289-3.409-.79-6.884 1.64-7.762 5.428-.878 3.788 1.174 7.499 4.583 8.289 3.409.79 6.884-1.64 7.762-5.428zm-15.124-3.001l2.464.352" stroke="#000" stroke-width="4" stroke-miterlimit="10" stroke-linecap="round"/><path d="M274.098 64.654s6.689 5.632 7.393 7.04c0 0-10.913 11.264-2.465 24.993" stroke="#30242A" stroke-width="4" stroke-miterlimit="10" stroke-linecap="round"/><path d="M309.942 28.188a2.806 2.806 0 10-4.787-2.929l-53.322 87.16a2.807 2.807 0 004.788 2.929l53.321-87.16z" fill="#30242A"/><path d="M314.787 5.54l6.062-4.85a3.095 3.095 0 014.767 1.154c.259.578.333 1.223.214 1.845l-1.454 7.635a3.108 3.108 0 00.19 1.787c.239.564.64 1.045 1.151 1.381l6.484 4.267a3.1 3.1 0 011.319 3.29 3.094 3.094 0 01-2.632 2.374l-7.684.982a3.102 3.102 0 00-2.601 2.256l-2.053 7.484a3.098 3.098 0 01-2.723 2.265 3.1 3.1 0 01-3.071-1.765l-3.305-7.04a3.097 3.097 0 00-2.95-1.76l-7.744.351a3.098 3.098 0 01-2.306-5.357l5.657-5.316a3.1 3.1 0 00.778-3.355l-2.739-7.261a3.095 3.095 0 01.87-3.442 3.1 3.1 0 013.53-.37l6.805 3.741a3.102 3.102 0 003.435-.295z" fill="#3EC1F3"/><path d="M278.498 62.718c-2.464-2.112-7.198-3.482-9.504-2.112-3.893 2.312-2.936 6.804-2.936 6.804s-6.336-.986-6.258 5.505c0 0-5.101 2.232-2.869 7.333 0 0-4.415 1.116-2.317 6.55 1.708 4.433 5.647 6.752 8.044 7.953 2.112 1.056 5.351-.468 4.224-4.576 0 0 2.464.704 3.872-.704 1.943-1.944 1.056-5.633 1.056-5.633s2.464.704 4.224-.704c2.148-1.718 1.056-4.928 1.056-4.928a4.381 4.381 0 003.521-2.816c1.408-3.52-3.873-7.744-3.873-7.744l1.76-4.928z" fill="#A15842"/><path d="M256.674 80.449a85.392 85.392 0 0010.208 10.43m-7.04-17.995a72.62 72.62 0 0012.341 11.894m-6.709-17.072a51.547 51.547 0 0011.859 11.29m-3.235-14.342s3.299 2.777 5.506 4.928" stroke="#30242A" stroke-width="4" stroke-miterlimit="10" stroke-linecap="round"/><path d="M356.803 33.05l-1.858 2.046-1.236 1.358c-.785 2.746 4.928 7.121 12.873 9.832 7.945 2.71 15.137 2.735 16.193.08l-.148-1.83-.222-2.756c-2.985.704-8.156.137-13.696-1.76-5.541-1.897-9.98-4.576-11.906-6.97z" fill="#FFBE21"/><path d="M370.856 33.761c-4.154-1.408-7.695-3.288-10.018-5.146l-4.035 4.435c1.926 2.394 6.375 5.09 11.913 6.98 5.537 1.89 10.711 2.465 13.696 1.76l-.482-5.984c-2.974.053-6.92-.63-11.074-2.045z" fill="#FF7235"/><path d="M365.153 23.87l-4.315 4.745c2.323 1.858 5.864 3.731 10.018 5.146 4.154 1.415 8.096 2.112 11.074 2.049l-.517-6.396a41.517 41.517 0 01-16.26-5.544z" fill="#FFBE21"/><path d="M375.133 21.223a42.039 42.039 0 01-5.485-2.299l-4.495 4.928a41.517 41.517 0 0016.26 5.545l-.539-6.66a42.492 42.492 0 01-5.741-1.514z" fill="#FF7235"/><path d="M380.874 22.754l-1.2-14.855-10.026 11.025a42.039 42.039 0 005.485 2.3 42.503 42.503 0 005.741 1.53z" fill="#FFBE21"/><path d="M380.518 10.842a5.421 5.421 0 100-10.842 5.421 5.421 0 000 10.842z" fill="#FF7235"/></svg>